<?xml version="1.0" standalone="no"?>
<!DOCTYPE svg PUBLIC "-//W3C//DTD SVG 1.1//EN" "http://www.w3.org/Graphics/SVG/1.1/DTD/svg11.dtd" >
<svg xmlns="http://www.w3.org/2000/svg">
<metadata>
This is a custom SVG webfont generated by Font Squirrel.
Copyright   : Chica Mono computer font v10 2000 Harold Lohner   HLohneraolcom   httpmembersaolocmfontner      Designed as a monoweight companion font for Chicago which is  1990 91 Apple Computer Inc  1990 91 Type Solutions Inc  1990 91 The Font Bureau 
</metadata>
<defs>
<font id="ChicaMonoRegular" horiz-adv-x="1033" >
<font-face units-per-em="2048" ascent="1638" descent="-410" />
<missing-glyph horiz-adv-x="515" />
<glyph unicode=" "  horiz-adv-x="515" />
<glyph unicode="&#x09;" horiz-adv-x="515" />
<glyph unicode="&#xa0;" horiz-adv-x="515" />
<glyph unicode="!" horiz-adv-x="499" d="M164 0v191h191v-191h-191zM164 362v1174h191v-1174h-191z" />
<glyph unicode="&#x22;" horiz-adv-x="815" d="M164 1024v512h171v-512h-171zM505 1024v512h171v-512h-171z" />
<glyph unicode="#" horiz-adv-x="1590" d="M121 512v171h299l86 341h-214v171h255l86 341h170l-85 -341h341l86 341h171l-85 -341h256v-171h-300l-85 -341h214v-171h-257l-85 -341h-171l86 341h-342l-84 -341h-171l86 341h-257zM590 683h341l86 341h-342z" />
<glyph unicode="$" horiz-adv-x="1133" d="M145 341h171l-1 -29v-7q0 -119 171 -134v506l-169 148q-87 78 -124 149q-48 92 -48 221q0 303 341 341v171h170v-171q321 0 341 -341h-170q-21 170 -167 170h-4v-512l166 -145q87 -80 125 -151q50 -93 50 -216q0 -302 -341 -341v-171h-170v171q-342 27 -341 341z M381 1206q0 -75 25 -124q19 -37 80 -101v384q-105 -43 -105 -159zM656 171q105 43 105 159q0 48 -35 118q-32 64 -70 101v-378z" />
<glyph unicode="%" horiz-adv-x="1736" d="M91 1194q0 141 100.5 241.5t241 100.5t241 -100t100.5 -242q0 -141 -101 -241t-240 -100q-141 0 -241.5 100.5t-100.5 240.5zM262 1194q0 -70 50.5 -120t120.5 -50t120 50t50 120q0 71 -50 121t-120 50q-71 0 -121 -50t-50 -121zM347 0l768 1365h-341v171h597l-853 -1536 h-171zM944 341q0 141 101 241.5t241 100.5q141 0 241 -100.5t100 -241.5q0 -140 -100 -240.5t-241 -100.5t-241.5 100t-100.5 241zM1115 341q0 -70 50.5 -120t120.5 -50t120.5 50t50.5 120t-50.5 120.5t-120.5 50.5t-120.5 -50t-50.5 -121z" />
<glyph unicode="&#x26;" horiz-adv-x="1288" d="M124 341v171q0 145 71 238q79 103 221 103q-159 18 -227 102q-65 79 -65 240t114 254q106 88 270 87q140 0 240 -100.5t100 -240.5v-171h-191q0 179 -12 223q-32 118 -158 118q-107 0 -145 -81q-26 -55 -26 -175q0 -150 171 -170v-171q-171 -22 -171 -171v-256 q0 -77 47 -123.5t124 -46.5q130 0 166 129q12 43 15 102q1 21 2 47q0 45 -5 105q-8 108 -8 129q185 0 194 1q124 15 150 95q18 58 18 245h170v-171q0 -147 -97 -244t-244 -97q0 -313 -112 -422q-91 -90 -270 -90q-131 0 -236.5 105t-105.5 236z" />
<glyph unicode="'" horiz-adv-x="474" d="M164 1024v512h171v-512h-171z" />
<glyph unicode="(" horiz-adv-x="644" d="M158 385v766q0 210 3 233q12 123 78 194q73 79 122 102q54 25 159 27v-171q-172 -20 -171 -171v-1194q0 -153 171 -171v-171h-13q-101 0 -156 29q-42 23 -111 99q-66 73 -79 198q-3 25 -3 230z" />
<glyph unicode=")" horiz-adv-x="655" d="M154 0q170 19 170 171l1 1194q0 153 -171 171v171h14q100 0 155 -30q43 -22 112 -99q66 -73 78 -196q2 -26 2 -231v-766q0 -209 -2 -233q-13 -123 -77 -194q-73 -79 -123 -103q-53 -25 -159 -26v171z" />
<glyph unicode="*" horiz-adv-x="1141" d="M129 870l267 154l-267 154l85 147l267 -153v307h170v-307l266 153l85 -147l-266 -154l266 -154l-85 -147l-267 153v-307h-169v307l-267 -153z" />
<glyph unicode="+" horiz-adv-x="1077" d="M118 512v171h341v341h170v-341h342v-171h-342v-341h-170v341h-341z" />
<glyph unicode="," horiz-adv-x="608" d="M157 0v191h289v-191q0 -165 -67.5 -244.5t-221.5 -96.5v170q75 2 99 46q17 31 19 125h-118z" />
<glyph unicode="-" horiz-adv-x="1170" d="M164 512v171h853v-171h-853z" />
<glyph unicode="." horiz-adv-x="522" d="M164 0v191h191v-191h-191z" />
<glyph unicode="/" horiz-adv-x="922" d="M80 0l683 1707h170l-682 -1707h-171z" />
<glyph unicode="0" d="M156 341v854q0 161 113 254q106 88 269 87q140 0 240.5 -100.5t100.5 -240.5v-854q0 -160 -113 -254q-106 -87 -269 -87q-95 0 -176.5 50t-126.5 134q-38 74 -38 157zM347 614l338 610q-35 141 -168 141q-70 0 -120 -50t-50 -120v-581zM351 314q26 -143 166 -143 q70 0 120.5 50t50.5 120v580z" />
<glyph unicode="1" horiz-adv-x="663" d="M153 1345v70l191 121h170v-1536h-190v1345h-171z" />
<glyph unicode="2" horiz-adv-x="1122" d="M138 0v171q0 135 139 285q22 24 243 219q143 127 209 228q92 140 92 292q0 69 -51 119.5t-120 50.5h-170q-159 0 -171 -170h-171q40 342 342 341h191q277 0 328 -297q13 -76 13 -180t-132 -262q-64 -76 -213 -217l-20 -19q-170 -161 -221 -218q-99 -111 -97 -172h683 v-171h-874z" />
<glyph unicode="3" horiz-adv-x="1163" d="M136 341h172q11 -170 170 -170h170q70 0 120.5 50.5t50.5 119.5v342q0 143 -167 168q-38 6 -87 6h-20q-28 0 -66 -1q-54 -2 -71 -3v171l361 341h-633v171h874l-1 -171l-361 -341q145 0 253.5 -99t108.5 -242v-342q0 -140 -100.5 -240.5t-240.5 -100.5h-191 q-303 0 -342 341z" />
<glyph unicode="4" horiz-adv-x="1287" d="M110 512v171l683 853h191v-853h171v-171h-171v-512h-191v512h-683zM282 683h511v640z" />
<glyph unicode="5" horiz-adv-x="1016" d="M152 853v683h724l-1 -171h-532v-341q168 0 253 -17q151 -28 218 -115q62 -78 62 -209v-342q0 -160 -114 -254q-106 -87 -268 -87q-303 0 -342 341h171q12 -170 191 -170q69 0 120 50.5t51 119.5v342q0 153 -205 177q-41 5 -95 5q-40 0 -87 -3q-145 -9 -146 -9z" />
<glyph unicode="6" horiz-adv-x="1008" d="M142 341v598q0 246 175.5 421.5t420.5 175.5h106v-171q-101 0 -170 -7q-342 -38 -341 -334v-171q20 171 191 171q180 0 282 -150q59 -87 59 -191v-342q0 -160 -113 -254q-106 -87 -269 -87q-140 0 -240.5 101t-100.5 240zM333 341q0 -70 50.5 -120t120 -50t120 50 t50.5 120v342q0 70 -50.5 120t-120 50t-120 -50t-50.5 -120v-342z" />
<glyph unicode="7" horiz-adv-x="1055" d="M96 1365v171h874v-341q0 -9 -77 -159l-93 -183q-172 -354 -172 -512v-341h-190v341q0 118 87 330q56 133 165 342q88 169 88 182v170h-682z" />
<glyph unicode="8" horiz-adv-x="1020" d="M149 1195q0 184 146 278q100 63 237 63q247 0 317 -240q24 -82 24 -187q0 -151 -94 -248q-77 -79 -197 -93q146 0 222 -127q69 -115 69 -300q0 -150 -118 -249q-112 -92 -264 -92q-241 0 -317 251q-25 82 -25 176q0 128 81 230q86 111 211 111q-216 25 -270 227 q-22 80 -22 200zM340 341q0 -70 50 -120q52 -50 122 -50t120 50t50 120v171q0 171 -170 171q-172 0 -172 -171v-171zM340 1024q0 -70 50 -120q52 -51 122 -51t120 50.5t50 120.5v171q0 70 -50 120t-120 50q-71 0 -121.5 -50t-50.5 -120v-171z" />
<glyph unicode="9" horiz-adv-x="1014" d="M142 853v342q0 160 113 254q106 88 269 87q141 0 241 -100.5t100 -240.5v-598q0 -247 -176 -422t-421 -175h-105v171q102 0 170 8q341 37 340 333v171q-18 -171 -190 -171q-179 0 -282 150q-59 87 -59 191zM333 853q0 -70 50.5 -120t120 -50t120 50t50.5 120v342 q0 70 -50.5 120t-120 50t-120 -50t-50.5 -120v-342z" />
<glyph unicode=":" horiz-adv-x="628" d="M164 0v341h341v-341h-341zM164 853v342h341v-342h-341z" />
<glyph unicode=";" horiz-adv-x="635" d="M159 0v341h341v-341q0 -304 -341 -341v170q166 5 171 171h-171zM159 853v342h341v-342h-341z" />
<glyph unicode="&#x3c;" horiz-adv-x="1117" d="M84 768l682 597h257l-683 -597l683 -597h-257z" />
<glyph unicode="=" horiz-adv-x="1283" d="M164 341v171h1024v-171h-1024zM164 683v170h1024v-170h-1024z" />
<glyph unicode="&#x3e;" horiz-adv-x="1094" d="M84 171l682 597l-682 597h256l683 -597l-683 -597h-256z" />
<glyph unicode="?" horiz-adv-x="1084" d="M119 1195q39 342 341 341h190q141 0 242 -100.5t101 -240.5q0 -127 -56 -201q-48 -64 -167 -120q-93 -43 -106 -79q-18 -49 -19 -172v-30q0 -49 2 -116q3 -97 3 -115h-190v321q0 132 71 217q29 34 175 145q94 72 94 150q0 69 -50.5 119.5t-119.5 50.5h-170 q-158 0 -171 -170h-170zM460 0v191h190v-191h-190z" />
<glyph unicode="@" horiz-adv-x="1786" d="M127 597v342q0 245 176.5 421t420.5 176h342q245 0 421 -176t176 -421v-427q0 -70 -50.5 -120.5t-119.5 -50.5h-342q-151 -1 -171 171q-17 -172 -200 -171q-126 0 -221 110q-91 105 -90 232v170q0 139 101 240.5t240 101.5h341q0 -17 -10.5 -156.5t-10.5 -229.5 q0 -154 27.5 -225.5t79.5 -71.5h171q85 0 85 85v342q0 175 -126 300.5t-301 125.5h-342q-175 0 -300 -125.5t-125 -300.5v-342q0 -364 425 -425q93 -13 215 -13q75 0 205.5 6t178.5 6v-171h-598q-245 0 -421.5 175.5t-176.5 421.5zM639 683q0 -71 50 -121t121 -50 q70 0 120 50t50 121v341h-170q-70 0 -120.5 -50.5t-50.5 -120.5v-170z" />
<glyph unicode="A" horiz-adv-x="1029" d="M161 0v1195q0 153 104 248q100 92 254 92q229 0 325 -176q40 -73 40 -164v-1195h-191v683h-341v-683h-191zM352 853h341v342q0 74 -48.5 121t-122 47t-122 -47t-48.5 -121v-342z" />
<glyph unicode="B" horiz-adv-x="1035" d="M157 0v1536h382q342 0 342 -377q0 -128 -27 -195q-71 -174 -264 -196q129 0 204 -90t89 -257q0 4 -1 3q-1 0 -1 -83q0 -139 -101 -240t-241 -101h-382zM348 171h170q70 0 121 50.5t51 119.5v171q0 171 -172 171h-170v-512zM348 853h170q71 0 121.5 50.5t50.5 120.5v171 q0 70 -50.5 120t-121.5 50h-170v-512z" />
<glyph unicode="C" horiz-adv-x="960" d="M156 341v854q0 141 100.5 241t240.5 100h36q323 0 342 -341h-171q-20 170 -171 170h-21q-69 0 -119.5 -50t-50.5 -120v-854q0 -69 51 -119.5t119 -50.5h21q152 0 171 170h171q-22 -341 -342 -341h-36q-140 0 -240.5 100.5t-100.5 240.5z" />
<glyph unicode="D" horiz-adv-x="1037" d="M160 0v1536h382q140 0 241 -100.5t101 -240.5v-854q0 -140 -101 -240.5t-241 -100.5h-382zM351 171h170q70 0 120.5 50.5t50.5 119.5v854q0 70 -50.5 120t-120.5 50h-170v-1194z" />
<glyph unicode="E" horiz-adv-x="929" d="M145 0v1536h702v-171h-511v-512h341v-170h-341v-512h511v-171h-702z" />
<glyph unicode="F" horiz-adv-x="920" d="M138 0v1536h703v-171h-512v-512h341v-170h-341v-683h-191z" />
<glyph unicode="G" horiz-adv-x="1159" d="M156 341v854q0 141 100 241t241 100h192q322 0 341 -341h-171q-20 170 -170 170h-172q-69 0 -119.5 -50t-50.5 -120v-854q0 -70 50.5 -120t119.5 -50h151q171 0 171 170v342h-322v170h513v-512q0 -148 -96.5 -244.5t-244.5 -96.5h-192q-140 0 -240.5 100.5t-100.5 240.5z " />
<glyph unicode="H" horiz-adv-x="1036" d="M164 0v1536h191v-683h342v683h191v-1536h-191v683h-342v-683h-191z" />
<glyph unicode="I" horiz-adv-x="503" d="M164 0v1536h191v-1536h-191z" />
<glyph unicode="J" horiz-adv-x="1025" d="M137 341v342h192q0 -22 -6 -99.5t-6 -125.5q0 -287 183 -287q70 0 120 50.5t50 119.5v1195h191v-1195q0 -189 -100 -269q-90 -72 -282 -72q-241 0 -313 174q-29 70 -29 167z" />
<glyph unicode="K" horiz-adv-x="1155" d="M124 0v1536h191v-627l552 627h252l-682 -768l682 -768h-292l-512 597v-597h-191z" />
<glyph unicode="L" horiz-adv-x="894" d="M132 0v1536h192v-1365h511v-171h-703z" />
<glyph unicode="M" horiz-adv-x="1554" d="M164 0v1536h128l489 -678l494 678h131v-1536h-177v1184l-454 -614l-440 614v-1184h-171z" />
<glyph unicode="N" horiz-adv-x="1057" d="M164 0v1536h78l496 -978v978h171v-1536h-78l-496 978v-978h-171z" />
<glyph unicode="O" d="M156 341v854q0 161 113 254q106 88 269 87q140 0 240.5 -100.5t100.5 -240.5v-854q0 -160 -113 -254q-106 -87 -269 -87q-95 0 -176.5 50t-126.5 134q-38 74 -38 157zM347 341q0 -69 50.5 -119.5t119.5 -50.5t120 50.5t51 119.5v854q0 70 -51 120t-120 50q-70 0 -120 -50 t-50 -120v-854z" />
<glyph unicode="P" horiz-adv-x="971" d="M139 0v1536h382q140 0 241 -100.5t101 -240.5v-171q0 -259 -251 -319q-96 -22 -282 -22v-683h-191zM330 853h171q70 0 120 50.5t50 120.5v171q0 70 -50.5 120t-119.5 50h-171v-512z" />
<glyph unicode="Q" horiz-adv-x="1024" d="M152 341v854q0 161 114 254q106 88 269 87q140 0 240.5 -100.5t100.5 -240.5v-854q0 -302 -341 -341h341v-171h-256q-152 0 -170 171q62 0 62 3l-12 5l-46 12q-87 23 -106 29q-64 22 -95 52q-101 96 -101 240zM344 341q0 -69 50.5 -119.5t119.5 -50.5t120 50.5t51 119.5 v854q0 70 -51 120t-120 50q-70 0 -120 -50t-50 -120v-854z" />
<glyph unicode="R" horiz-adv-x="1024" d="M159 0v1536h383q341 0 341 -434q0 -119 -62 -202q-93 -124 -279 -124q105 0 176 -21q165 -47 165 -200v-555h-191v512q0 69 -51 120t-120 51h-171v-683h-191zM350 853h171q70 0 120.5 50.5t50.5 120.5v171q0 70 -50.5 120t-120.5 50h-171v-512z" />
<glyph unicode="S" horiz-adv-x="994" d="M156 341h171l-1 -28q-2 -66 53 -106q49 -36 119 -36q146 0 165 138q5 34 5 84q0 95 -175 273q-228 232 -253 269q-84 128 -84 260q0 174 136 272q97 70 226 70q320 0 341 -342h-170q-22 171 -161 171q-182 0 -181 -172q0 -72 83 -173q42 -52 172 -179q115 -112 154 -170 q103 -154 103 -331q0 -151 -107 -248q-103 -93 -254 -93q-215 0 -295 138q-47 80 -47 203z" />
<glyph unicode="T" horiz-adv-x="946" d="M122 1365v171h724v-171h-266v-1365h-192v1365h-266z" />
<glyph unicode="U" horiz-adv-x="1048" d="M161 341v1195h191v-1195q0 -69 50.5 -119.5t120 -50.5t120 50.5t50.5 119.5v1195h191v-1195q0 -160 -113 -254q-106 -87 -269 -87q-95 0 -176.5 50t-125.5 134q-39 74 -39 157z" />
<glyph unicode="V" horiz-adv-x="1041" d="M159 0v1536h191v-1365h46q90 0 194 129q102 125 102 216v1020h191v-953q0 -198 -141 -383q-152 -200 -342 -200h-241z" />
<glyph unicode="W" horiz-adv-x="1571" d="M159 0v1536h191v-1365h46q79 0 187 121q106 118 106 196v1048h194l-3 -1365h46q90 0 195 130q101 124 101 215v1020h191v-953q0 -198 -141 -383q-151 -200 -342 -200h-241v150q-83 -85 -127 -111q-65 -39 -162 -39h-241z" />
<glyph unicode="X" horiz-adv-x="1027" d="M159 0v427q0 161 65 239q69 83 227 102q-158 18 -227 101q-65 79 -65 240v427h192v-512q0 -70 50.5 -120.5t119.5 -50.5t120 50.5t51 120.5v512h191v-427q0 -161 -65 -240q-68 -83 -226 -101q158 -20 226 -103q65 -79 65 -239v-426h-191v512q0 69 -51 120t-120 51 q-70 0 -120 -51t-50 -120v-512h-192z" />
<glyph unicode="Y" horiz-adv-x="1003" d="M138 1124v412h192v-512q0 -70 50.5 -120.5t120.5 -50.5q69 0 119.5 50.5t50.5 120.5v512h191v-412q0 -411 -266 -441v-683h-191v683q-267 30 -267 441z" />
<glyph unicode="Z" horiz-adv-x="925" d="M104 0v171l530 1194h-530v171h724v-171l-530 -1194h530v-171h-724z" />
<glyph unicode="[" horiz-adv-x="647" d="M163 -171v1878h361v-171h-170v-1536h170v-171h-361z" />
<glyph unicode="\" horiz-adv-x="1002" d="M80 1707h171l682 -1707h-171z" />
<glyph unicode="]" horiz-adv-x="678" d="M163 0h171v1536h-171v171h361v-1878h-361v171z" />
<glyph unicode="^" horiz-adv-x="1263" d="M100 1024l511 512l513 -512h-170l-343 341l-340 -341h-171z" />
<glyph unicode="_" horiz-adv-x="1684" d="M164 0h1365v-171h-1365v171z" />
<glyph unicode="`" horiz-adv-x="648" d="M144 1707h172l171 -342h-171z" />
<glyph unicode="a" horiz-adv-x="1018" d="M151 342v1q0 257 251 316q98 24 281 24v170q0 79 -57 127q-54 44 -134 44q-152 0 -170 -171h-171q20 183 105.5 262.5t266.5 79.5q140 0 245.5 -101.5t105.5 -240.5v-853h-191v171q-8 -74 -86 -125q-72 -46 -155 -46q-174 0 -251 157q-40 81 -40 185zM342 340 q0 -69 50.5 -119t120 -50t120 50t50.5 120v171h-171q-71 0 -120.5 -50t-49.5 -121v-1z" />
<glyph unicode="b" horiz-adv-x="1009" d="M148 0v1536h191v-512q20 171 241 171q174 0 251 -157q40 -81 40 -185v-512q0 -140 -100.5 -240.5t-240.5 -100.5h-382zM339 171h171q70 0 120 50t50 120v512q0 70 -50.5 120.5t-120 50.5t-120 -50.5t-50.5 -120.5v-682z" />
<glyph unicode="c" horiz-adv-x="971" d="M155 341v512q0 151 106 248q104 94 255 94q323 0 342 -342h-171q-19 171 -171 171q-69 0 -119.5 -51t-50.5 -120v-512q0 -91 62 -139q39 -31 108 -31q152 0 171 170h171q-21 -341 -362 -341q-90 0 -126 15q-87 35 -156 135q-59 87 -59 191z" />
<glyph unicode="d" horiz-adv-x="1018" d="M148 341v512q0 260 250 319q97 23 282 23v341h191v-1536h-191v171q-20 -171 -241 -171q-174 0 -251 156q-40 81 -40 185zM339 341q0 -70 50.5 -120t120 -50t120 50t50.5 120v683h-170q-70 0 -120.5 -50.5t-50.5 -120.5v-512z" />
<glyph unicode="e" horiz-adv-x="1013" d="M154 341v512q0 161 114 255q106 87 269 87q95 0 176.5 -50t125.5 -135q39 -74 39 -157v-341h-533v-171q0 -80 58 -127q53 -43 134 -43q170 0 170 170h171q-21 -183 -111 -262t-271 -79q-95 0 -177 50t-126 134q-39 74 -39 157zM345 683h342v170q0 70 -50.5 120.5 t-120.5 50.5q-71 0 -121 -50.5t-50 -120.5v-170z" />
<glyph unicode="f" horiz-adv-x="810" d="M139 1024v171h171v65q8 123 76 192q38 39 106 64q56 20 93 20h106v-172l-65 -2q-81 -2 -112 -51q-13 -19 -13 -116h170v-171h-170v-1024h-191v1024h-171z" />
<glyph unicode="g" horiz-adv-x="1038" d="M158 -171h171q11 -170 190 -170q70 0 120.5 50.5t50.5 119.5v342q-20 -171 -191 -171q-180 0 -282 150q-59 87 -59 191v512q0 140 100.5 241t240.5 101h382v-1366q0 -160 -114 -254q-106 -88 -268 -87q-303 -1 -341 341zM349 341q0 -70 50.5 -120t120 -50t120 50 t50.5 120v683h-171q-70 0 -120 -50.5t-50 -120.5v-512z" />
<glyph unicode="h" horiz-adv-x="998" d="M149 0v1536h191v-512q20 171 241 171q174 0 252 -157q40 -81 40 -185v-853h-192v853q0 69 -50.5 120t-119.5 51t-120 -51t-51 -120v-853h-191z" />
<glyph unicode="i" horiz-adv-x="497" d="M164 0v1195h191v-1195h-191zM164 1365v171h191v-171h-191z" />
<glyph unicode="j" horiz-adv-x="976" d="M131 0h171q14 -171 170 -171q69 0 119.5 50.5t50.5 120.5v1195h191v-1195q0 -151 -106 -248q-103 -93 -255 -93q-303 0 -341 341zM642 1365v171h191v-171h-191z" />
<glyph unicode="k" horiz-adv-x="1009" d="M129 0v1536h191v-768l382 427h257l-552 -598l547 -597h-257l-377 427v-427h-191z" />
<glyph unicode="l" horiz-adv-x="501" d="M164 0v1536h191v-1536h-191z" />
<glyph unicode="m" horiz-adv-x="1561" d="M161 0v1195h191v-171q10 79 87 130q69 46 152 46q124 0 209 -126q42 64 113 94q66 27 163 27q178 0 282 -151q60 -87 60 -191v-853h-192v853q0 68 -50.5 119.5t-119.5 51.5t-120 -51t-51 -120v-853h-191v853q0 69 -51 120t-119.5 51t-120 -51t-51.5 -120v-853h-191z" />
<glyph unicode="n" horiz-adv-x="1029" d="M162 0v1195h191v-171q20 171 241 171q174 0 251 -157q41 -81 41 -185v-853h-192v853q0 69 -50.5 120t-120.5 51q-69 0 -119.5 -51t-50.5 -120v-853h-191z" />
<glyph unicode="o" horiz-adv-x="1026" d="M154 341v512q0 161 114 255q106 87 269 87q95 0 176.5 -50t125.5 -135q39 -74 39 -157v-512q0 -160 -114 -254q-106 -87 -268 -87q-96 0 -177.5 50t-125.5 134q-39 74 -39 157zM345 341q0 -70 50.5 -120t120.5 -50t120.5 50t50.5 120v512q0 70 -50.5 120.5t-120.5 50.5 q-71 0 -121 -50.5t-50 -120.5v-512z" />
<glyph unicode="p" horiz-adv-x="1025" d="M148 -341v1536h192v-171q0 83 69 130q61 41 147 41q177 0 267 -153q49 -85 49 -189v-512q0 -299 -240 -336q-29 -5 -292 -5v-341h-192zM340 171h170q70 0 120.5 50t50.5 120v512q0 70 -50.5 120t-120.5 50q-71 0 -120.5 -49.5t-49.5 -120.5v-682z" />
<glyph unicode="q" horiz-adv-x="1028" d="M147 342v512q0 140 100.5 240.5t241.5 100.5h382v-1536h-192l1 512q-20 -171 -191 -171q-180 0 -283 151q-59 87 -59 191zM338 342q0 -70 50.5 -120.5t121.5 -50.5q70 0 120 50t50 120v683h-170q-71 0 -121.5 -50t-50.5 -120v-512z" />
<glyph unicode="r" horiz-adv-x="801" d="M142 0v1195h191v-192q23 194 253 194h109v-196l-119 1h-4q-86 0 -154 -39q-85 -48 -85 -130v-833h-191z" />
<glyph unicode="s" horiz-adv-x="998" d="M155 851q0 152 106 250q103 94 255 94q321 0 342 -342h-170q-22 171 -162 171q-182 0 -181 -142q0 -57 98 -118l203 -114q126 -77 173 -157q39 -67 39 -150q0 -152 -104.5 -247.5t-257.5 -95.5q-341 0 -341 341h171q20 -171 160 -171q183 0 182 143q0 57 -98 118 l-203 114q-126 76 -173 156q-39 68 -39 150z" />
<glyph unicode="t" horiz-adv-x="797" d="M143 1024v171h172v341h191v-341h170v-171h-170v-683q0 -70 49.5 -119t120.5 -51v-171h-21q-140 0 -240 100.5t-100 240.5v683h-172z" />
<glyph unicode="u" d="M162 341v854h192v-854q0 -69 50.5 -119.5t119.5 -50.5t120 50.5t51 119.5v854h191v-1195h-191v171q-9 -76 -86 -125q-71 -46 -155 -46q-174 0 -252 156q-40 81 -40 185z" />
<glyph unicode="v" horiz-adv-x="1045" d="M157 0v1195h191v-1024h21q90 0 196 106q125 123 125 194v724h191v-612q0 -241 -171.5 -412t-411.5 -171h-141z" />
<glyph unicode="w" horiz-adv-x="1578" d="M157 0v1195h191v-1024h21q84 0 202.5 98.5t118.5 176.5v749h191v-1024h21q84 0 200 107q121 111 121 208v709h191v-612q0 -241 -171.5 -412t-411.5 -171h-141v154q-166 -154 -392 -154h-141z" />
<glyph unicode="x" horiz-adv-x="1024" d="M158 0v256q0 313 241 341q-136 16 -196 126q-45 83 -45 216v256h191q0 -21 -5.5 -99.5t-5.5 -126.5q0 -85 15 -143q36 -143 167 -143q182 0 182 286q0 49 -5.5 127t-5.5 99h191v-256q0 -159 -66 -240q-69 -84 -225 -102q156 -19 225 -102q66 -80 66 -239v-256h-191 q0 21 5.5 98.5t5.5 126.5q0 85 -15 142q-36 146 -167 146q-183 0 -182 -288q0 -49 5.5 -126.5t5.5 -98.5h-191z" />
<glyph unicode="y" horiz-adv-x="1040" d="M159 -171h172q11 -170 190 -170q70 0 120.5 50.5t50.5 119.5v342q-20 -171 -241 -171q-174 0 -251 156q-41 81 -41 185v854h192v-854q0 -69 50.5 -119.5t119.5 -50.5t120 50.5t51 119.5v854h191v-1366q0 -160 -114 -254q-106 -87 -268 -87q-303 0 -342 341z" />
<glyph unicode="z" horiz-adv-x="960" d="M121 0v171l518 853h-518v171h724v-171l-517 -853h517v-171h-724z" />
<glyph unicode="{" horiz-adv-x="761" d="M126 683v170q133 0 164 106q9 28 11 67q1 17 1 43q0 46 -4.5 120t-4.5 126q0 29 2 51q18 303 343 341v-171q-160 -13 -172 -171q-2 -17 -2 -44q0 -44 4 -116q3 -60 3 -107q0 -43 -2 -73q-15 -163 -118 -257q102 -94 118 -256q3 -32 3 -77.5t-3 -102.5q-4 -74 -5 -120 q0 -26 2 -41q13 -160 172 -171v-171q-326 37 -343 341q-1 22 -2 51q0 52 5 127q4 73 4 119q0 26 -1 44q-12 172 -175 172z" />
<glyph unicode="|" horiz-adv-x="487" d="M164 -171v1878h170v-1878h-170z" />
<glyph unicode="}" horiz-adv-x="765" d="M126 0q160 13 173 171q1 16 1 41q0 45 -4 120q-3 57 -3 102t3 77q15 162 117 257q-101 95 -117 257q-3 32 -3 76.5t3 102.5q4 75 4 120q0 26 -1 41q-13 159 -173 171v171q326 -37 344 -341q1 -22 1 -51q0 -51 -4.5 -125t-4.5 -120q0 -26 2 -44q12 -173 174 -173v-170 q-133 0 -163 -107q-8 -28 -11 -66q-1 -17 -2 -43q0 -46 5 -119q4 -75 4 -127q0 -29 -1 -50q-18 -304 -344 -342v171z" />
<glyph unicode="~" horiz-adv-x="1307" d="M147 853q40 342 342 342q65 0 127 -39q20 -12 108 -82q64 -50 106 -50q151 0 170 171h171q-40 -342 -341 -342q-67 0 -129 38q-22 13 -107 82q-62 51 -105 51q-151 0 -170 -171h-172z" />
<glyph unicode="&#xa1;" horiz-adv-x="1176" d="M841 0v1174h191v-1174h-191zM841 1345v191h191v-191h-191z" />
<glyph unicode="&#xa2;" horiz-adv-x="1099" d="M137 853v342q0 302 341 341v171h170v-171q324 -21 341 -341h-170q-17 154 -171 170v-682q154 16 171 170h170q-18 -309 -341 -341v-171h-170v171q-341 38 -341 341zM308 853q0 -152 170 -170v682q-170 -19 -170 -170v-342z" />
<glyph unicode="&#xa3;" horiz-adv-x="1251" d="M124 0v171h171v512h-171v170h171q0 299 1 315q17 198 107 284q87 84 253 84q303 0 342 -342h-170q-13 171 -163 171q-180 0 -179 -170v-342h170v-170h-170v-512h342q158 0 170 170h171q-39 -341 -342 -341h-703z" />
<glyph unicode="&#xa4;" horiz-adv-x="1109" d="M-146 516l160 171h774l-161 -171h-773zM-146 858l160 170h774l-161 -170h-773zM156 341v854q0 141 100.5 241t240.5 100h187q322 0 341 -341h-171q-20 170 -170 170h-172q-69 0 -119.5 -50t-50.5 -120v-854q0 -69 51 -119.5t119 -50.5h172q151 0 170 170h171 q-22 -341 -341 -341h-187q-140 0 -240.5 100.5t-100.5 240.5z" />
<glyph unicode="&#xa5;" horiz-adv-x="1027" d="M154 341v171h266v171h-266v170h266q-266 52 -266 342v341h191v-341q0 -71 50.5 -121t120.5 -50t120.5 50t50.5 121v341h191v-341q0 -288 -266 -342h266v-170h-266v-171h266v-171h-266v-341h-192v341h-266z" />
<glyph unicode="&#xa8;" horiz-adv-x="1016" d="M164 1365v211h200v-211h-200zM645 1365v211h201v-211h-201z" />
<glyph unicode="&#xa9;" horiz-adv-x="10182" d="M0 1654q0 -150 83 -256q92 -119 224 -119q91 0 167 59q81 64 119 180q21 63 21 136q0 97 -40 185q-44 95 -120 144q-72 45 -147 45q-122 0 -214.5 -106.5t-92.5 -267.5zM44 1654q0 139 80 231t183 92q145 0 222 -153q40 -78 40 -170q0 -148 -86 -240q-77 -83 -176 -83 q-113 0 -191 102q-72 91 -72 221zM47 17v545h75v-76q35 57 77 77q24 12 54 12q84 0 122 -85q56 86 131 85q74 0 114 -57q29 -40 29 -137v-364h-78v383q0 92 -77 92q-54 0 -84 -49q-24 -41 -24 -99v-327h-76v378q0 98 -72 98q-54 0 -87 -52q-28 -45 -28 -102v-322h-76z M148 1655q0 -85 41 -146q46 -72 127 -72q120 0 142 144h-50q-20 -87 -89 -86q-64 0 -94 74q-17 41 -17 90q0 103 53 141q24 17 52 17q82 0 93 -95h50q-6 64 -40 104q-42 49 -107 49q-91 0 -137 -98q-24 -53 -24 -122zM739 289q0 -126 50 -202q57 -87 158 -87q79 0 134 57 q50 53 62 134h-74q-34 -109 -120 -109q-123 0 -127 175h327q0 97 -6 134q-17 114 -99 163q-42 25 -94 25q-105 0 -163 -96q-48 -81 -48 -194zM822 332q12 167 128 167q76 0 105 -76q15 -37 17 -91h-250zM888 1279q10 137 50 199q22 33 58 65q54 37 158 116q45 38 58 81 q6 23 6 52q0 138 -119 138q-113 0 -119 -181h-77v16q0 106 47 171q54 75 156 75q94 0 146 -64q49 -60 49 -156q0 -120 -99 -200q-11 -8 -103 -69q-66 -44 -91.5 -77.5t-34.5 -78.5h327v-87h-412zM1239 17v545h74v-76q35 57 77 77q25 12 54 12q84 0 121 -85q56 86 132 85 q75 0 115 -57q28 -40 28 -137v-364h-78v383q0 92 -77 92q-55 0 -84 -49q-24 -41 -24 -99v-327h-75v378q0 98 -73 98q-54 0 -86 -52q-29 -45 -29 -102v-322h-75zM1368 1631q0 -244 95 -328q46 -41 109 -41q208 0 208 380q0 262 -100 337q-45 32 -101 32q-211 0 -211 -380z M1451 1630q0 300 123 300q54 0 83 -45q41 -63 41 -245q0 -298 -123.5 -298t-123.5 288zM1884 1631q0 -244 94 -328q46 -41 110 -41q209 0 209 380q0 262 -101 337q-44 32 -101 32q-211 0 -211 -380zM1946 17h68v70q48 -87 133 -87q76 0 127 64q67 86 67 238q0 123 -46 195 q-51 81 -140 80q-83 0 -135 -84v273h-74v-749zM1966 1630q0 300 125 300q53 0 83 -45q41 -63 41 -245q0 -298 -125 -297q-124 -1 -124 287zM2014 290q0 206 131 206q118 0 118 -201q0 -214 -122 -214q-127 0 -127 209zM2400 1631q0 -244 94 -328q47 -41 109 -41 q209 0 209 380q0 262 -101 337q-44 32 -101 32q-210 0 -210 -380zM2407 289q0 -126 50 -202q57 -87 157 -87q79 0 134 57q50 53 62 134h-74q-34 -109 -120 -109q-123 0 -126 175h326q0 96 -6 134q-17 114 -99 163q-42 25 -94 25q-105 0 -162 -96q-48 -81 -48 -194z M2482 1630q0 300 124 300q54 0 83 -45q41 -63 41 -245q0 -298 -125 -297q-123 -1 -123 287zM2490 332q12 167 127 167q76 0 105 -76q15 -37 17 -91h-249zM2908 17v545h71v-93q48 107 122 106q10 0 25 -3v-95q-20 2 -29 2q-72 0 -104 -78q-10 -24 -10 -74v-310h-75z M3145 1279v749h82v-310h327v310h82v-749h-82v352h-327v-352h-82zM3167 189h72q7 -113 117 -113q108 0 108 87q0 54 -86 79l-67 20q-130 39 -130 150q0 103 81 146q38 21 88 21q78 0 123.5 -46t48.5 -124h-72q-9 96 -103 96t-94 -79q0 -56 78 -79l86 -25q119 -35 119 -140 q0 -84 -49.5 -133t-133.5 -49q-178 0 -186 189zM3628 17v113h87v-113h-87zM3766 1279v749h83v-660h311v-89h-394zM3826 160q0 -69 37 -113q39 -47 106 -47q90 0 159 89q6 -79 81 -79q16 0 41 8v65q-16 -4 -25 -4q-24 0 -24 32v314q0 62 -37 104q-41 50 -137 50 q-92 0 -138 -51q-39 -43 -43 -128h72q8 105 107 105q100 0 100 -94q0 -57 -38 -63l-126 -19q-55 -8 -89 -42q-46 -47 -46 -127zM3903 168q0 67 75 88q5 1 58 10l43 8q24 4 45 21v-88q0 -55 -42.5 -93t-98.5 -38q-80 0 -80 92zM4207 1551.5q0 -117.5 41 -189.5q36 -62 93 -87 q33 -13 74 -13q109 0 164 95q44 77 43.5 194.5t-44.5 194.5q-54 95 -163 95t-164 -95q-44 -77 -44 -194.5zM4284 1551q0 208 131 208t131 -208q0 -209 -131 -209t-131 209zM4297 290q0 -117 41 -189q36 -63 94 -87q32 -14 73 -14q109 0 163 95q44 77 44 195t-44 195 q-55 95 -163.5 94.5t-163.5 -94.5q-44 -77 -44 -195zM4374 290q0 209 130.5 209t130.5 -209q0 -208 -130.5 -208t-130.5 208zM4709 1279v751h75v-279q35 55 78 74q26 12 61 12q100 0 134 -87q16 -42 16 -122v-349h-77v343q0 94 -38 120q-21 14 -51 14q-123 0 -123 -178v-299 h-75zM4801 17v749h76v-749h-76zM5009 17v113h87v-113h-87zM5185 1279v545h72v-77q33 54 81 77q28 14 63 14q97 0 133 -87q16 -38 16 -123v-349h-76v343q0 132 -90 132q-60 0 -93 -50q-30 -44 -30 -126v-299h-76zM5202 277q0 125 44 201q59 99 159 98q160 0 175 -198h-72 q-14 117 -102 117q-127 0 -127 -216q0 -203 118 -203q93 0 111 132h72q-21 -208 -186 -208q-95 0 -147 82q-45 70 -45 195zM5630 290q0 -117 41 -189q36 -63 94 -87q32 -14 73 -14q109 0 164 95q44 77 44 195t-45 195q-54 95 -163 94.5t-164 -94.5q-44 -77 -44 -195z M5640 1550q0 -126 50 -202q56 -86 157 -86q79 0 134 57q51 53 63 134h-75q-33 -110 -120 -110q-122 0 -127 176h328q-1 96 -7 133q-17 114 -99 163q-42 26 -93 26q-105 0 -163 -97q-48 -81 -48 -194zM5707 290q0 209 131 209t131 -209q0 -208 -131 -208t-131 208zM5722 1593 q12 166 128 166q76 0 106 -75q15 -38 16 -91h-250zM6133 17v545h74v-76q35 57 77 77q25 12 54 12q84 0 122 -85q56 86 132 85q75 0 114 -57q28 -40 28 -137v-364h-78v383q0 92 -76 92q-55 0 -84 -49q-24 -41 -24 -99v-327h-76v378q0 98 -73 98q-54 0 -87 -52 q-28 -45 -28 -102v-322h-75zM6141 1279v545h72v-94q47 106 121 106q10 0 25 -2v-97q-19 3 -28 3q-73 0 -104 -78q-10 -24 -10 -74v-309h-76zM6464 1641q0 -228 158 -332q79 -52 185 -52q118 0 218 63q28 18 60 49l-27 46q-74 -65 -149 -87q-43 -12 -94 -12q-137 0 -216 93 q-76 89 -76 228q0 213 145 306q71 45 165 45q164 0 224 -119q30 -60 30 -139q0 -140 -73 -196q-26 -19 -51 -18q-37 0 -37 43q0 20 12 69l56 224h-62l-21 -86q-8 103 -98 103q-93 0 -146 -123q-28 -65 -27 -135q0 -63 25 -106q32 -55 90 -55q82 0 124 106q-2 -12 -2 -20 q0 -82 80 -82q67 0 120 66q66 80 66 210q0 203 -150 280q-74 38 -166 38q-178 0 -281 -144q-82 -114 -82 -263zM6708 1605q0 132 73 191q24 19 46 19q38 0 56 -40q8 -19 8 -42q0 -131 -66 -199q-25 -25 -52 -25q-65 -1 -65 96zM6790 17l195 748h64l-195 -748h-64zM7039 488 v72h62v97q0 119 113 119q18 0 38 -3v-84q-20 3 -29 3q-46 0 -46 -64v-68h75v-72h-75v-471h-76v471h-62zM7274 1422q0 -69 37 -113q38 -47 106 -47q90 0 159 88q6 -79 80 -79q17 0 41 9v64q-16 -4 -25 -4q-24 0 -23 32v313q0 63 -37 106q-42 50 -137 50q-92 0 -139 -51 q-38 -43 -42 -130h72q8 105 107 105q100 0 100 -93q0 -57 -39 -63l-125 -19q-55 -9 -89 -43q-46 -45 -46 -125zM7297 290q0 -117 41 -189q36 -63 94 -87q32 -14 73 -14q109 0 164 95q44 77 43.5 195t-44.5 195q-54 95 -163 94.5t-164 -94.5q-44 -77 -44 -195zM7351 1430 q0 67 75 87q5 2 57 11l44 8q24 4 45 20v-87q0 -56 -42.5 -94t-99.5 -38q-79 0 -79 93zM7374 290q0 209 131 209t131 -209q0 -208 -131 -208t-131 208zM7744 1551.5q0 -117.5 41 -189.5q36 -62 94 -87q32 -13 73 -13q109 0 164 95q44 77 44 194.5t-45 194.5q-54 95 -163 95 t-164 -95q-44 -77 -44 -194.5zM7799 17v545h71v-76q34 55 81 76q29 14 64 14q97 0 133 -86q16 -38 16 -123v-350h-77v345q0 131 -89 131q-60 0 -94 -50q-30 -44 -30 -126v-300h-75zM7821 1551q0 208 131 208t131 -208q0 -209 -131 -209t-131 209zM8229 488v74h61v153h76 v-153h72v-74h-72v-356q0 -45 44 -45q12 0 28 2v-73q-23 -8 -55 -8q-93 0 -93 119v361h-61zM8249 1279v749h75v-749h-75zM8457 1279v112h87v-112h-87zM8513 17v545h72v-76q33 55 80 76q29 14 63 14q97 0 133 -86q16 -38 16 -123v-350h-77v345q0 131 -89 131q-60 0 -93 -50 q-29 -44 -29 -126v-300h-76zM8649 1537.5q0 124.5 45 200.5q58 100 157 100q161 0 176 -200h-72q-14 118 -103 118q-127 0 -127 -216q0 -204 119 -203q92 0 111 133h72q-21 -208 -186 -208q-95 0 -147 81q-45 70 -45 194.5zM8968 289q0 -126 49 -202q57 -87 158 -87 q79 0 134 57q51 53 63 134h-75q-34 -109 -120 -109q-122 0 -127 175h327q0 96 -6 134q-17 114 -99 163q-42 25 -94 25q-105 0 -162 -96q-48 -81 -48 -194zM9050 332q12 167 128 167q76 0 106 -76q14 -37 16 -91h-250zM9077 1551.5q0 -117.5 42 -189.5q36 -62 93 -87 q33 -13 74 -13q109 0 164 95q44 77 44 194.5t-45 194.5q-54 95 -163 95t-164 -95q-45 -77 -45 -194.5zM9154 1551q0 208 132 208q131 0 131 -208q0 -209 -131 -208q-132 -1 -132 208zM9469 17v545h72v-93q47 107 121 106q10 0 25 -3v-95q-19 2 -28 2q-73 0 -104 -78 q-10 -24 -10 -74v-310h-76zM9581 1279v545h74v-77q35 57 76 77q25 12 54 12q84 0 122 -85q56 85 132 85q75 0 115 -56q28 -40 28 -139v-362h-78v382q0 92 -77 92q-55 0 -84 -49q-25 -41 -25 -99v-326h-76v377q0 98 -72 98q-54 0 -86 -52q-28 -46 -28 -103v-320h-75z" />
<glyph unicode="&#xaa;" horiz-adv-x="953" d="M154 171v170h653v-170h-653zM154 854q0 138 75 208q62 59 188 76q63 9 206 9v96q0 146 -155 146q-127 0 -142 -146h-172q32 294 285 293h84q118 0 201 -87t83 -206v-731h-184v146q-17 -146 -209 -146q-65 0 -114 23q-146 68 -146 319zM339 827q0 -144 143 -144 q142 0 141 146v147h-141q-143 0 -143 -148v-1z" />
<glyph unicode="&#xab;" horiz-adv-x="1342" d="M111 597l596 597v-171l-425 -426l425 -427v-170zM622 597l598 597v-171l-427 -426l427 -427v-170z" />
<glyph unicode="&#xad;" horiz-adv-x="1170" d="M164 512v171h853v-171h-853z" />
<glyph unicode="&#xb0;" horiz-adv-x="947" d="M144 1195q0 140 100.5 240.5t241 100.5t241 -100t100.5 -242q0 -141 -101 -241t-240 -100q-141 0 -241.5 100.5t-100.5 241.5zM315 1195q0 -70 50 -120.5t121 -50.5q70 0 120 50t50 121t-50.5 120.5t-119.5 49.5q-71 0 -121 -49.5t-50 -120.5z" />
<glyph unicode="&#xb2;" horiz-adv-x="1122" d="M138 0v171q0 135 139 285q22 24 243 219q143 127 209 228q92 140 92 292q0 69 -51 119.5t-120 50.5h-170q-159 0 -171 -170h-171q40 341 342 341h191q277 0 328 -297q13 -76 13 -180t-132 -262q-64 -76 -213 -217l-20 -19q-170 -161 -221 -218q-99 -111 -97 -172h683 v-171h-874z" />
<glyph unicode="&#xb3;" horiz-adv-x="1163" d="M136 341h172q11 -170 170 -170h170q70 0 120.5 50.5t50.5 119.5v342q0 143 -167 168q-38 6 -87 6h-20q-28 0 -66 -1q-54 -2 -71 -3v171l361 341h-633v171h874l-1 -171l-361 -341q145 0 253.5 -99t108.5 -242v-342q0 -140 -100.5 -240.5t-240.5 -100.5h-191 q-303 0 -342 341z" />
<glyph unicode="&#xb4;" horiz-adv-x="600" d="M144 1365l172 342h171l-171 -342h-172z" />
<glyph unicode="&#xb7;" horiz-adv-x="668" d="M164 512v341h341v-341h-341z" />
<glyph unicode="&#x2219;" horiz-adv-x="668" d="M164 512v341h341v-341h-341z" />
<glyph unicode="&#xb8;" horiz-adv-x="470" d="M149 -488l66 158q22 -6 36 -6q82 0 82 85q0 80 -86 86h2q0 -1 -88 -1v171h87q105 0 180.5 -75.5t75.5 -180.5q0 -100 -73.5 -178.5t-172.5 -78.5q-39 0 -109 20z" />
<glyph unicode="&#xb9;" horiz-adv-x="663" d="M153 1345v70l191 121h170v-1536h-190v1345h-171z" />
<glyph unicode="&#xba;" horiz-adv-x="953" d="M156 171v170h653v-170h-653zM156 805v438q0 119 83 206t202 87h84q118 0 201 -87t83 -206v-438q0 -119 -83 -206t-201 -87h-84q-119 0 -202 87t-83 206zM341 829q0 -146 143 -146q142 0 141 146v390q0 146 -141 146q-143 0 -143 -146v-390z" />
<glyph unicode="&#xbb;" horiz-adv-x="1296" d="M111 0v170l425 427l-425 426v171l596 -597zM622 0v170l427 427l-427 426v171l598 -597z" />
<glyph unicode="&#xbc;" horiz-adv-x="3169" d="M153 1345v70l191 121h170v-1536h-190v1345h-171zM992 0l683 1536h170l-682 -1536h-171zM1992 512v171l683 853h191v-853h171v-171h-171v-512h-191v512h-683zM2164 683h511v640z" />
<glyph unicode="&#xbd;" horiz-adv-x="3005" d="M153 1345v70l191 121h170v-1536h-190v1345h-171zM992 0l683 1536h170l-682 -1536h-171zM2020 0v171q0 135 139 285q22 24 244 219q143 127 208 228q92 140 92 292q0 69 -51 119.5t-119 50.5h-171q-159 0 -171 -170h-171q40 341 342 341h192q277 0 327 -297 q13 -76 13 -180t-132 -262q-64 -76 -212 -217l-20 -19q-170 -161 -222 -218q-99 -111 -97 -172h683v-171h-874z" />
<glyph unicode="&#xbe;" horiz-adv-x="3670" d="M136 341h172q11 -170 170 -170h170q70 0 120.5 50.5t50.5 119.5v342q0 143 -167 168q-38 6 -87 6h-20q-28 0 -66 -1q-54 -2 -71 -3v171l361 341h-633v171h874l-1 -171l-361 -341q145 0 253.5 -99t108.5 -242v-342q0 -140 -100.5 -240.5t-240.5 -100.5h-191 q-303 0 -342 341zM1493 0l683 1536h170l-683 -1536h-170zM2493 512v171l683 853h191v-853h171v-171h-171v-512h-191v512h-683zM2664 683h512v640z" />
<glyph unicode="&#xbf;" horiz-adv-x="1637" d="M671 341q0 128 55 201q49 64 168 119q92 43 105 80q18 48 20 171q0 57 -3 148q-3 96 -3 114h191v-321q0 -133 -72 -217q-29 -34 -175 -145q-94 -71 -94 -150q0 -69 50.5 -119.5t119.5 -50.5h171q159 0 171 170h169q-38 -341 -340 -341h-191q-140 0 -241 100.5t-101 240.5 zM1013 1345v191h191v-191h-191z" />
<glyph unicode="&#xc0;" horiz-adv-x="1029" d="M161 0v1195q0 153 104 248q100 92 254 92q229 0 325 -176q40 -73 40 -164v-1195h-191v683h-341v-683h-191zM262 2002h172l170 -343h-170zM352 853h341v342q0 74 -48.5 121t-122 47t-122 -47t-48.5 -121v-342z" />
<glyph unicode="&#xc1;" horiz-adv-x="1029" d="M161 0v1195q0 153 104 248q100 92 254 92q229 0 325 -176q40 -73 40 -164v-1195h-191v683h-341v-683h-191zM352 853h341v342q0 74 -48.5 121t-122 47t-122 -47t-48.5 -121v-342zM434 1659l171 343h171l-171 -343h-171z" />
<glyph unicode="&#xc2;" horiz-adv-x="1029" d="M161 0v1195q0 153 104 248q100 92 254 92q229 0 325 -176q40 -73 40 -164v-1195h-191v683h-341v-683h-191zM175 1704l256 343h169l256 -343h-170l-171 172l-170 -172h-170zM352 853h341v342q0 74 -48.5 121t-122 47t-122 -47t-48.5 -121v-342z" />
<glyph unicode="&#xc3;" horiz-adv-x="1029" d="M-3 1696q40 343 342 343q65 0 128 -39q20 -13 107 -82q64 -50 106 -50q151 0 170 171h171q-40 -343 -341 -343q-67 0 -129 38q-22 14 -106 83q-62 51 -106 51q-151 0 -170 -172h-172zM161 0v1195q0 153 104 248q100 92 254 92q229 0 325 -176q40 -73 40 -164v-1195h-191 v683h-341v-683h-191zM352 853h341v342q0 74 -48.5 121t-122 47t-122 -47t-48.5 -121v-342z" />
<glyph unicode="&#xc4;" horiz-adv-x="1029" d="M161 0v1195q0 153 104 248q100 92 254 92q229 0 325 -176q40 -73 40 -164v-1195h-191v683h-341v-683h-191zM178 1659v212h200v-212h-200zM352 853h341v342q0 74 -48.5 121t-122 47t-122 -47t-48.5 -121v-342zM659 1659v212h201v-212h-201z" />
<glyph unicode="&#xc5;" horiz-adv-x="1029" d="M161 0v1195q0 172 127 268l-4 4q-100 99 -100 240q0 140 100.5 240.5t241 100.5t240.5 -100.5t100 -241.5q0 -143 -100 -239l-8 -8q126 -97 126 -264v-1195h-191v683h-341v-683h-191zM352 853h341v342q0 74 -48.5 121t-122 47t-122 -47t-48.5 -121v-342zM354 1707 q0 -71 50.5 -120.5t121 -50t120.5 49.5t50 121q0 70 -50.5 120t-120.5 50q-71 0 -121 -50t-50 -120z" />
<glyph unicode="&#xc6;" horiz-adv-x="1459" d="M142 0v1195q0 140 100.5 240.5t240.5 100.5h895v-171h-512v-512h341v-170h-341v-512h512v-171h-703v683h-342v-683h-191zM333 853h342v342q0 70 -50.5 120t-120.5 50t-120.5 -50t-50.5 -120v-342z" />
<glyph unicode="&#xc7;" horiz-adv-x="960" d="M156 341v854q0 141 100.5 241t240.5 100h36q323 0 342 -341h-171q-20 170 -171 170h-21q-69 0 -119.5 -50t-50.5 -120v-854q0 -69 51 -119.5t119 -50.5h21q152 0 171 170h171q-22 -341 -342 -341h-36q-140 0 -240.5 100.5t-100.5 240.5zM460 -476l65 158q22 -6 36 -6 q82 0 82 85q0 80 -86 86h3q0 -1 -88 -1v171h86q105 0 180.5 -75.5t75.5 -180.5q0 -100 -73.5 -178.5t-172.5 -78.5q-38 0 -108 20z" />
<glyph unicode="&#xc8;" horiz-adv-x="929" d="M145 0v1536h702v-171h-511v-512h341v-170h-341v-512h511v-171h-702zM239 2002h172l170 -343h-170z" />
<glyph unicode="&#xc9;" horiz-adv-x="929" d="M145 0v1536h702v-171h-511v-512h341v-170h-341v-512h511v-171h-702zM410 1659l171 343h171l-171 -343h-171z" />
<glyph unicode="&#xca;" horiz-adv-x="929" d="M145 0v1536h702v-171h-511v-512h341v-170h-341v-512h511v-171h-702zM160 1704l256 343h169l256 -343h-170l-170 172l-171 -172h-170z" />
<glyph unicode="&#xcb;" horiz-adv-x="929" d="M145 0v1536h702v-171h-511v-512h341v-170h-341v-512h511v-171h-702zM156 1705v212h200v-212h-200zM637 1705v212h201v-212h-201z" />
<glyph unicode="&#xcc;" horiz-adv-x="503" d="M59 2047h172l171 -343h-171zM164 0v1536h191v-1536h-191z" />
<glyph unicode="&#xcd;" horiz-adv-x="503" d="M129 680v172h266v171h-266v170h266q-266 52 -266 342v341h191v-341q0 -71 50.5 -121t121.5 -50q70 0 120 50t50 121v341h191v-341q0 -288 -266 -342h266v-170h-266v-171h266v-172h-266v-340h-192v340h-266zM164 0v1536h191v-1536h-191z" />
<glyph unicode="&#xce;" horiz-adv-x="503" d="M-81 1659l256 343h170l255 -343h-169l-171 172l-171 -172h-170zM164 0v1536h191v-1536h-191z" />
<glyph unicode="&#xcf;" horiz-adv-x="503" d="M-82 1659v212h200v-212h-200zM164 0v1536h191v-1536h-191zM400 1659v212h200v-212h-200z" />
<glyph unicode="&#xd1;" horiz-adv-x="1057" d="M25 1659q40 343 342 343q65 0 128 -39q20 -13 107 -82q64 -50 106 -50q151 0 170 171h171q-40 -343 -341 -343q-67 0 -129 38q-22 14 -106 83q-62 51 -106 51q-151 0 -170 -172h-172zM164 0v1536h78l496 -978v978h171v-1536h-78l-496 978v-978h-171z" />
<glyph unicode="&#xd2;" d="M156 341v854q0 161 113 254q106 87 269 87q140 0 240.5 -100.5t100.5 -240.5v-854q0 -160 -113 -254q-106 -87 -269 -87q-95 0 -176.5 50t-126.5 134q-38 74 -38 157zM282 2002h172l170 -343h-170zM347 341q0 -69 50.5 -119.5t119.5 -50.5t120 50.5t51 119.5v854 q0 70 -51 120t-120 50q-70 0 -120 -50t-50 -120v-854z" />
<glyph unicode="&#xd3;" d="M156 341v854q0 161 113 254q106 87 269 87q140 0 240.5 -100.5t100.5 -240.5v-854q0 -160 -113 -254q-106 -87 -269 -87q-95 0 -176.5 50t-126.5 134q-38 74 -38 157zM347 341q0 -69 50.5 -119.5t119.5 -50.5t120 50.5t51 119.5v854q0 70 -51 120t-120 50q-70 0 -120 -50 t-50 -120v-854zM453 1659l171 343h171l-171 -343h-171z" />
<glyph unicode="&#xd4;" d="M156 341v854q0 161 113 254q106 87 269 87q140 0 240.5 -100.5t100.5 -240.5v-854q0 -160 -113 -254q-106 -87 -269 -87q-95 0 -176.5 50t-126.5 134q-38 74 -38 157zM198 1659l256 343h169l256 -343h-170l-171 172l-170 -172h-170zM347 341q0 -69 50.5 -119.5 t119.5 -50.5t120 50.5t51 119.5v854q0 70 -51 120t-120 50q-70 0 -120 -50t-50 -120v-854z" />
<glyph unicode="&#xd5;" d="M27 1659q40 343 342 343q65 0 128 -39q20 -13 107 -82q64 -50 106 -50q151 0 170 171h171q-40 -343 -341 -343q-67 0 -129 38q-22 14 -106 83q-62 51 -106 51q-151 0 -170 -172h-172zM156 341v854q0 161 113 254q106 87 269 87q140 0 240.5 -100.5t100.5 -240.5v-854 q0 -160 -113 -254q-106 -87 -269 -87q-95 0 -176.5 50t-126.5 134q-38 74 -38 157zM347 341q0 -69 50.5 -119.5t119.5 -50.5t120 50.5t51 119.5v854q0 70 -51 120t-120 50q-70 0 -120 -50t-50 -120v-854z" />
<glyph unicode="&#xd6;" d="M156 341v854q0 161 113 254q106 87 269 87q140 0 240.5 -100.5t100.5 -240.5v-854q0 -160 -113 -254q-106 -87 -269 -87q-95 0 -176.5 50t-126.5 134q-38 74 -38 157zM181 1705v212h200v-212h-200zM347 341q0 -69 50.5 -119.5t119.5 -50.5t120 50.5t51 119.5v854 q0 70 -51 120t-120 50q-70 0 -120 -50t-50 -120v-854zM662 1705v212h201v-212h-201z" />
<glyph unicode="&#xd8;" horiz-adv-x="1238" d="M127 0l172 307q-2 17 -2 34v854q0 161 113 254q106 87 269 87q143 0 244 -103l57 103h171l-142 -255q12 -42 12 -86v-854q0 -160 -114 -254q-106 -87 -269.5 -87t-266.5 130l-72 -130h-172zM488 341q0 -69 50.5 -119.5t119.5 -50.5q70 0 120.5 50.5t50.5 119.5v616z M488 648l332 601q-40 116 -162 116q-69 0 -119.5 -50t-50.5 -120v-547z" />
<glyph unicode="&#xd9;" horiz-adv-x="1048" d="M161 341v1195h191v-1195q0 -69 50.5 -119.5t120 -50.5t120 50.5t50.5 119.5v1195h191v-1195q0 -160 -113 -254q-106 -87 -269 -87q-95 0 -176.5 50t-125.5 134q-39 74 -39 157zM309 2047h172l170 -343h-170z" />
<glyph unicode="&#xda;" horiz-adv-x="1048" d="M161 341v1195h191v-1195q0 -69 50.5 -119.5t120 -50.5t120 50.5t50.5 119.5v1195h191v-1195q0 -160 -113 -254q-106 -87 -269 -87q-95 0 -176.5 50t-125.5 134q-39 74 -39 157zM437 1659l171 343h171l-171 -343h-171z" />
<glyph unicode="&#xdb;" horiz-adv-x="1048" d="M161 341v1195h191v-1195q0 -69 50.5 -119.5t120 -50.5t120 50.5t50.5 119.5v1195h191v-1195q0 -160 -113 -254q-106 -87 -269 -87q-95 0 -176.5 50t-125.5 134q-39 74 -39 157zM182 1659l256 343h169l256 -343h-170l-171 172l-170 -172h-170z" />
<glyph unicode="&#xdc;" horiz-adv-x="1048" d="M161 341v1195h191v-1195q0 -69 50.5 -119.5t120 -50.5t120 50.5t50.5 119.5v1195h191v-1195q0 -160 -113 -254q-106 -87 -269 -87q-95 0 -176.5 50t-125.5 134q-39 74 -39 157zM182 1659v212h200v-212h-200zM663 1659v212h201v-212h-201z" />
<glyph unicode="&#xdd;" horiz-adv-x="1003" d="M138 1124v412h192v-512q0 -70 50.5 -120.5t120.5 -50.5q69 0 119.5 50.5t50.5 120.5v512h191v-412q0 -411 -266 -441v-683h-191v683q-267 30 -267 441zM414 1659l171 343h171l-171 -343h-171z" />
<glyph unicode="&#xde;" horiz-adv-x="956" d="M136 0v1536h191v-341q148 0 192 -5q341 -39 341 -337v-170q0 -299 -341 -337q-45 -5 -192 -5v-341h-191zM327 512h172q70 0 120 50t50 121v170q0 70 -50.5 120.5t-119.5 50.5h-172v-512z" />
<glyph unicode="&#xdf;" horiz-adv-x="1028" d="M154 0v1195q0 161 114 254q106 88 269 87q140 0 240.5 -100.5t100.5 -240.5q0 -135 -78 -229q-80 -98 -213 -113q124 0 207.5 -84t83.5 -207v-221q0 -141 -112 -242q-108 -99 -250 -99v171h5q45 0 81 18q85 43 85 152v256q0 75 -48 123t-123 48v171q75 0 116 39 q55 53 55 217q0 70 -51 120t-120 50q-70 0 -120 -50t-50 -120v-1195h-192z" />
<glyph unicode="&#xe0;" horiz-adv-x="1018" d="M151 342v1q0 257 251 316q98 24 281 24v170q0 79 -57 127q-54 44 -134 44q-152 0 -170 -171h-171q20 183 105.5 262.5t266.5 79.5q140 0 245.5 -101.5t105.5 -240.5v-853h-191v171q-8 -74 -86 -125q-72 -46 -155 -46q-174 0 -251 157q-40 81 -40 185zM319 1707h172 l170 -342h-170zM342 340q0 -69 50.5 -119t120 -50t120 50t50.5 120v171h-171q-71 0 -120.5 -50t-49.5 -121v-1z" />
<glyph unicode="&#xe1;" horiz-adv-x="1018" d="M151 342v1q0 257 251 316q98 24 281 24v170q0 79 -57 127q-54 44 -134 44q-152 0 -170 -171h-171q20 183 105.5 262.5t266.5 79.5q140 0 245.5 -101.5t105.5 -240.5v-853h-191v171q-8 -74 -86 -125q-72 -46 -155 -46q-174 0 -251 157q-40 81 -40 185zM342 340 q0 -69 50.5 -119t120 -50t120 50t50.5 120v171h-171q-71 0 -120.5 -50t-49.5 -121v-1zM438 1318l171 342h171l-171 -342h-171z" />
<glyph unicode="&#xe2;" horiz-adv-x="1018" d="M151 342v1q0 257 251 316q98 24 281 24v170q0 79 -57 127q-54 44 -134 44q-152 0 -170 -171h-171q20 183 105.5 262.5t266.5 79.5q140 0 245.5 -101.5t105.5 -240.5v-853h-191v171q-8 -74 -86 -125q-72 -46 -155 -46q-174 0 -251 157q-40 81 -40 185zM183 1318l256 342 h169l256 -342h-170l-171 172l-170 -172h-170zM342 340q0 -69 50.5 -119t120 -50t120 50t50.5 120v171h-171q-71 0 -120.5 -50t-49.5 -121v-1z" />
<glyph unicode="&#xe3;" horiz-adv-x="1018" d="M11 1318q40 343 342 342q65 0 128 -39q20 -13 107 -82q64 -50 106 -49q151 0 170 170h171q-40 -343 -341 -342q-67 0 -129 38q-22 14 -106 83q-62 51 -106 51q-151 0 -170 -172h-172zM151 342v1q0 257 251 316q98 24 281 24v170q0 79 -57 127q-54 44 -134 44 q-152 0 -170 -171h-171q20 183 105.5 262.5t266.5 79.5q140 0 245.5 -101.5t105.5 -240.5v-853h-191v171q-8 -74 -86 -125q-72 -46 -155 -46q-174 0 -251 157q-40 81 -40 185zM342 340q0 -69 50.5 -119t120 -50t120 50t50.5 120v171h-171q-71 0 -120.5 -50t-49.5 -121v-1z " />
<glyph unicode="&#xe4;" horiz-adv-x="1018" d="M151 342v1q0 257 251 316q98 24 281 24v170q0 79 -57 127q-54 44 -134 44q-152 0 -170 -171h-171q20 183 105.5 262.5t266.5 79.5q140 0 245.5 -101.5t105.5 -240.5v-853h-191v171q-8 -74 -86 -125q-72 -46 -155 -46q-174 0 -251 157q-40 81 -40 185zM174 1365v211h200 v-211h-200zM342 340q0 -69 50.5 -119t120 -50t120 50t50.5 120v171h-171q-71 0 -120.5 -50t-49.5 -121v-1zM655 1365v211h201v-211h-201z" />
<glyph unicode="&#xe5;" horiz-adv-x="1018" d="M151 342v1q0 257 251 316q98 24 281 24v170q0 79 -57 127q-54 44 -134 44q-152 0 -170 -171h-171q20 183 105.5 262.5t266.5 79.5q140 0 245.5 -101.5t105.5 -240.5v-853h-191v171q-8 -74 -86 -125q-72 -46 -155 -46q-174 0 -251 157q-40 81 -40 185zM184 1707 q0 141 100.5 241t241 100t240.5 -100.5t100 -241.5t-100.5 -241t-240.5 -100q-141 0 -241 100.5t-100 241.5zM342 340q0 -69 50.5 -119t120 -50t120 50t50.5 120v171h-171q-71 0 -120.5 -50t-49.5 -121v-1zM354 1707q0 -71 50.5 -121t120.5 -50t120.5 50t50.5 121 q0 70 -50.5 120t-120.5 50q-71 0 -121 -50t-50 -120z" />
<glyph unicode="&#xe6;" horiz-adv-x="1537" d="M148 342v1q0 258 251 317q96 23 282 23v170q0 80 -57 127q-53 44 -135 44q-151 0 -170 -171h-171q39 342 341 342h142q53 0 140 -46q86 46 146 46h141q140 0 241 -101t101 -241v-341h-533v-171q0 -80 57 -126q53 -44 134 -44q171 0 171 170h171q-40 -341 -342 -341h-141 q-60 0 -146 46q-87 -46 -140 -46h-142q-140 0 -240.5 100.5t-100.5 241.5zM339 340q1 -70 51 -119.5t120 -49.5q71 0 121 50t50 120v171h-171q-71 0 -121 -50t-50 -121v-1zM867 683h341v170q0 69 -50.5 120t-119.5 51q-70 0 -120.5 -50.5t-50.5 -120.5v-170z" />
<glyph unicode="&#xe7;" horiz-adv-x="971" d="M155 341v512q0 151 106 248q103 94 255 94q323 0 342 -342h-171q-19 171 -171 171q-69 0 -119.5 -51t-50.5 -120v-512q0 -69 51 -119.5t119 -50.5q152 0 171 170h171q-20 -316 -308 -339q93 -14 155.5 -86.5t62.5 -166.5q0 -100 -73.5 -178.5t-172.5 -78.5q-39 0 -107 20 l65 158q21 -6 35 -6q82 0 82 85q0 68 -58 82q-13 3 -112 3v173q-118 25 -195 119.5t-77 214.5z" />
<glyph unicode="&#xe8;" horiz-adv-x="1013" d="M154 341v512q0 161 114 255q106 87 269 87q95 0 176.5 -50t125.5 -135q39 -74 39 -157v-341h-533v-171q0 -80 58 -127q53 -43 134 -43q170 0 170 170h171q-21 -183 -111 -262t-271 -79q-95 0 -177 50t-126 134q-39 74 -39 157zM319 1707h172l170 -342h-170zM345 683h342 v170q0 70 -50.5 120.5t-120.5 50.5q-71 0 -121 -50.5t-50 -120.5v-170z" />
<glyph unicode="&#xe9;" horiz-adv-x="1013" d="M154 341v512q0 161 114 255q106 87 269 87q95 0 176.5 -50t125.5 -135q39 -74 39 -157v-341h-533v-171q0 -80 58 -127q53 -43 134 -43q170 0 170 170h171q-21 -183 -111 -262t-271 -79q-95 0 -177 50t-126 134q-39 74 -39 157zM345 683h342v170q0 70 -50.5 120.5 t-120.5 50.5q-71 0 -121 -50.5t-50 -120.5v-170zM379 341v171h265v171h-265v170h265q-266 52 -265 342v341h190v-341q0 -71 50.5 -121t121.5 -50q70 0 120.5 50t50.5 121v341h191v-341q0 -288 -266 -342h266v-170h-266v-171h266v-171h-266v-341h-193v341h-265z" />
<glyph unicode="&#xea;" horiz-adv-x="1013" d="M154 341v512q0 161 114 255q106 87 269 87q95 0 176.5 -50t125.5 -135q39 -74 39 -157v-341h-533v-171q0 -80 58 -127q53 -43 134 -43q170 0 170 170h171q-21 -183 -111 -262t-271 -79q-95 0 -177 50t-126 134q-39 74 -39 157zM170 1365l256 342h169l256 -342h-170 l-170 171l-171 -171h-170zM345 683h342v170q0 70 -50.5 120.5t-120.5 50.5q-71 0 -121 -50.5t-50 -120.5v-170z" />
<glyph unicode="&#xeb;" horiz-adv-x="1013" d="M154 341v512q0 161 114 255q106 87 269 87q95 0 176.5 -50t125.5 -135q39 -74 39 -157v-341h-533v-171q0 -80 58 -127q53 -43 134 -43q170 0 170 170h171q-21 -183 -111 -262t-271 -79q-95 0 -177 50t-126 134q-39 74 -39 157zM174 1365v211h200v-211h-200zM345 683h342 v170q0 70 -50.5 120.5t-120.5 50.5q-71 0 -121 -50.5t-50 -120.5v-170zM655 1365v211h201v-211h-201z" />
<glyph unicode="&#xec;" horiz-adv-x="505" d="M69 1707h172l171 -342h-171zM164 0v1195h191v-1195h-191z" />
<glyph unicode="&#xed;" horiz-adv-x="505" d="M129 341v171h266v171h-266v170h266q-266 52 -266 342v341h191v-341q0 -71 50.5 -121t121.5 -50q70 0 120 50t50 121v341h191v-341q0 -288 -266 -342h266v-170h-266v-171h266v-171h-266v-341h-192v341h-266zM164 0v1195h191v-1195h-191z" />
<glyph unicode="&#xee;" horiz-adv-x="505" d="M-90 1365l256 342h170l255 -342h-169l-171 171l-171 -171h-170zM164 0v1195h191v-1195h-191z" />
<glyph unicode="&#xef;" horiz-adv-x="505" d="M-86 1365v211h200v-211h-200zM164 0v1195h191v-1195h-191zM396 1365v211h200v-211h-200z" />
<glyph unicode="&#xf0;" horiz-adv-x="1031" d="M148 341v342q0 261 250 319q94 22 282 22l2 31q1 8 1 15q0 97 -83 185l-71 -70h-169l140 140q-95 40 -331 40v171h85q179 0 355 -71l71 71h171l-135 -135q156 -129 156 -486l-1 -574q0 -159 -114 -253q-106 -88 -268 -88q-140 0 -240.5 101t-100.5 240zM339 341 q0 -70 50.5 -120t120 -50t120 50t50.5 120v342q0 70 -50.5 120t-120 50t-120 -50t-50.5 -120v-342z" />
<glyph unicode="&#xf1;" horiz-adv-x="1029" d="M-3 1365q40 343 342 342q65 0 128 -39q20 -13 107 -82q64 -50 106 -50q151 0 170 171h171q-40 -343 -341 -342q-67 0 -129 38q-22 14 -106 83q-62 50 -106 50q-151 0 -170 -171h-172zM162 0v1195h191v-171q20 171 241 171q174 0 251 -157q41 -81 41 -185v-853h-192v853 q0 69 -50.5 120t-120.5 51q-69 0 -119.5 -51t-50.5 -120v-853h-191z" />
<glyph unicode="&#xf2;" horiz-adv-x="1026" d="M154 341v512q0 161 114 255q106 87 269 87q95 0 176.5 -50t125.5 -135q39 -74 39 -157v-512q0 -160 -114 -254q-106 -87 -268 -87q-96 0 -177.5 50t-125.5 134q-39 74 -39 157zM319 1707h172l170 -342h-170zM345 341q0 -70 50.5 -120t120.5 -50t120.5 50t50.5 120v512 q0 70 -50.5 120.5t-120.5 50.5q-71 0 -121 -50.5t-50 -120.5v-512z" />
<glyph unicode="&#xf3;" horiz-adv-x="1026" d="M154 341v512q0 161 114 255q106 87 269 87q95 0 176.5 -50t125.5 -135q39 -74 39 -157v-512q0 -160 -114 -254q-106 -87 -268 -87q-96 0 -177.5 50t-125.5 134q-39 74 -39 157zM345 341q0 -70 50.5 -120t120.5 -50t120.5 50t50.5 120v512q0 70 -50.5 120.5t-120.5 50.5 q-71 0 -121 -50.5t-50 -120.5v-512zM379 341v171h265v171h-265v170h265q-266 52 -265 342v341h190v-341q0 -71 50.5 -121t121.5 -50q70 0 120.5 50t50.5 121v341h191v-341q0 -288 -266 -342h266v-170h-266v-171h266v-171h-266v-341h-193v341h-265z" />
<glyph unicode="&#xf4;" horiz-adv-x="1026" d="M154 341v512q0 161 114 255q106 87 269 87q95 0 176.5 -50t125.5 -135q39 -74 39 -157v-512q0 -160 -114 -254q-106 -87 -268 -87q-96 0 -177.5 50t-125.5 134q-39 74 -39 157zM165 1365l256 342h169l256 -342h-170l-170 171l-171 -171h-170zM345 341q0 -70 50.5 -120 t120.5 -50t120.5 50t50.5 120v512q0 70 -50.5 120.5t-120.5 50.5q-71 0 -121 -50.5t-50 -120.5v-512z" />
<glyph unicode="&#xf5;" horiz-adv-x="1026" d="M25 1318q40 343 342 342q65 0 128 -39q20 -13 107 -82q64 -50 106 -49q151 0 170 170h171q-40 -343 -341 -342q-67 0 -129 38q-22 14 -106 83q-62 51 -106 51q-151 0 -170 -172h-172zM154 341v512q0 161 114 255q106 87 269 87q95 0 176.5 -50t125.5 -135q39 -74 39 -157 v-512q0 -160 -114 -254q-106 -87 -268 -87q-96 0 -177.5 50t-125.5 134q-39 74 -39 157zM345 341q0 -70 50.5 -120t120.5 -50t120.5 50t50.5 120v512q0 70 -50.5 120.5t-120.5 50.5q-71 0 -121 -50.5t-50 -120.5v-512z" />
<glyph unicode="&#xf6;" horiz-adv-x="1026" d="M154 341v512q0 161 114 255q106 87 269 87q95 0 176.5 -50t125.5 -135q39 -74 39 -157v-512q0 -160 -114 -254q-106 -87 -268 -87q-96 0 -177.5 50t-125.5 134q-39 74 -39 157zM196 1318v212h200v-212h-200zM345 341q0 -70 50.5 -120t120.5 -50t120.5 50t50.5 120v512 q0 70 -50.5 120.5t-120.5 50.5q-71 0 -121 -50.5t-50 -120.5v-512zM677 1318v212h201v-212h-201z" />
<glyph unicode="&#xf8;" horiz-adv-x="1236" d="M126 0l169 238q-16 50 -16 103v512q0 161 113 255q106 87 269 87q143 0 244 -103l73 103h172l-166 -232q19 -53 19 -110v-512q0 -160 -114 -254q-106 -87 -270 -87q-146 0 -246 107l-76 -107h-171zM470 482l321 451q-49 91 -151 91q-70 0 -120 -50.5t-50 -120.5v-371z M487 267q48 -96 153 -96q70 0 120.5 50t50.5 120v380z" />
<glyph unicode="&#xf9;" d="M162 341v854h192v-854q0 -69 50.5 -119.5t119.5 -50.5t120 50.5t51 119.5v854h191v-1195h-191v171q-9 -76 -86 -125q-71 -46 -155 -46q-174 0 -252 156q-40 81 -40 185zM319 1707h172l170 -342h-170z" />
<glyph unicode="&#xfa;" d="M162 341v854h192v-854q0 -69 50.5 -119.5t119.5 -50.5t120 50.5t51 119.5v854h191v-1195h-191v171q-9 -76 -86 -125q-71 -46 -155 -46q-174 0 -252 156q-40 81 -40 185zM379 341v171h265v171h-265v170h265q-266 52 -265 342v341h190v-341q0 -71 50.5 -121t121.5 -50 q70 0 120.5 50t50.5 121v341h191v-341q0 -288 -266 -342h266v-170h-266v-171h266v-171h-266v-341h-193v341h-265z" />
<glyph unicode="&#xfb;" d="M162 341v854h192v-854q0 -69 50.5 -119.5t119.5 -50.5t120 50.5t51 119.5v854h191v-1195h-191v171q-9 -76 -86 -125q-71 -46 -155 -46q-174 0 -252 156q-40 81 -40 185zM183 1318l256 342h169l256 -342h-170l-171 172l-170 -172h-170z" />
<glyph unicode="&#xfc;" d="M162 341v854h192v-854q0 -69 50.5 -119.5t119.5 -50.5t120 50.5t51 119.5v854h191v-1195h-191v171q-9 -76 -86 -125q-71 -46 -155 -46q-174 0 -252 156q-40 81 -40 185zM183 1318v212h200v-212h-200zM664 1318v212h201v-212h-201z" />
<glyph unicode="&#xfd;" horiz-adv-x="1040" d="M159 -171h172q11 -170 190 -170q70 0 120.5 50.5t50.5 119.5v342q-20 -171 -241 -171q-174 0 -251 156q-41 81 -41 185v854h192v-854q0 -69 50.5 -119.5t119.5 -50.5t120 50.5t51 119.5v854h191v-1366q0 -160 -114 -254q-106 -87 -268 -87q-303 0 -342 341zM379 341v171 h265v171h-265v170h265q-266 52 -265 342v341h190v-341q0 -71 50.5 -121t121.5 -50q70 0 120.5 50t50.5 121v341h191v-341q0 -288 -266 -342h266v-170h-266v-171h266v-171h-266v-341h-193v341h-265z" />
<glyph unicode="&#xfe;" horiz-adv-x="1001" d="M140 -341v1877h191v-512q10 87 85 133q64 38 157 38q170 0 250 -157q41 -83 41 -185v-512q0 -261 -250 -319q-95 -22 -283 -22v-341h-191zM331 171h171q70 0 120.5 50.5t50.5 119.5v512q0 69 -51 120t-120 51t-120 -51t-51 -120v-682z" />
<glyph unicode="&#xff;" horiz-adv-x="1040" d="M159 -171h172q11 -170 190 -170q70 0 120.5 50.5t50.5 119.5v342q-20 -171 -241 -171q-174 0 -251 156q-41 81 -41 185v854h192v-854q0 -69 50.5 -119.5t119.5 -50.5t120 50.5t51 119.5v854h191v-1366q0 -160 -114 -254q-106 -87 -268 -87q-303 0 -342 341zM180 1318v212 h200v-212h-200zM661 1318v212h201v-212h-201z" />
<glyph unicode="&#x152;" horiz-adv-x="1457" d="M140 341v854q0 140 100.5 240.5t241.5 100.5h895v-171h-513v-512h341v-170h-341v-512h513v-171h-895q-141 0 -241.5 100.5t-100.5 240.5zM332 341q0 -69 50.5 -119.5t120.5 -50.5q69 0 119.5 50.5t50.5 119.5v854q0 70 -51 120t-119 50q-70 0 -120.5 -50t-50.5 -120v-854 z" />
<glyph unicode="&#x153;" horiz-adv-x="1548" d="M154 341v512q0 140 100.5 241t241.5 101h141q58 0 145 -46q86 46 146 46h141q141 0 242 -101t101 -241v-341h-534v-171q0 -80 57 -126q53 -44 134 -44q172 0 171 170h172q-40 -341 -343 -341h-141q-60 0 -146 46q-87 -46 -145 -46h-141q-141 0 -241.5 100.5t-100.5 240.5 zM345 341q0 -70 50.5 -120t120.5 -50t120.5 50t50.5 120v512q0 70 -50.5 120.5t-120.5 50.5q-71 0 -121 -50.5t-50 -120.5v-512zM878 683h341v170q0 69 -50.5 120t-119.5 51q-70 0 -120.5 -50.5t-50.5 -120.5v-170z" />
<glyph unicode="&#x178;" horiz-adv-x="1003" d="M138 1124v412h192v-512q0 -70 50.5 -120.5t120.5 -50.5q69 0 119.5 50.5t50.5 120.5v512h191v-412q0 -411 -266 -441v-683h-191v683q-267 30 -267 441zM156 1705v212h200v-212h-200zM637 1705v212h201v-212h-201z" />
<glyph unicode="&#x2c6;" horiz-adv-x="975" d="M135 1365l256 342h169l256 -342h-170l-170 171l-171 -171h-170z" />
<glyph unicode="&#x2dc;" horiz-adv-x="1317" d="M147 1365q40 343 342 342q65 0 127 -39q20 -13 108 -82q64 -50 106 -50q151 0 170 171h171q-40 -343 -341 -342q-67 0 -129 38q-22 14 -107 83q-62 50 -105 50q-151 0 -170 -171h-172z" />
<glyph unicode="&#x2013;" horiz-adv-x="1001" d="M164 512v171h683v-171h-683z" />
<glyph unicode="&#x2014;" horiz-adv-x="1682" d="M164 512v171h1365v-171h-1365z" />
<glyph unicode="&#x2018;" horiz-adv-x="585" d="M156 1004v191q0 165 68 245q67 78 221 96v-170q-75 -2 -99 -46q-17 -31 -20 -125h119v-191h-289z" />
<glyph unicode="&#x2019;" horiz-adv-x="588" d="M157 854v170q75 2 99 46q17 31 20 125h-119v191h289v-191q0 -164 -67.5 -244t-221.5 -97z" />
<glyph unicode="&#x201a;" horiz-adv-x="664" d="M157 0v341h341v-341q0 -304 -341 -341v170q153 17 171 171h-171z" />
<glyph unicode="&#x201c;" horiz-adv-x="1097" d="M156 1004v191q0 165 68 245q67 78 221 96v-170q-75 -2 -99 -46q-17 -31 -20 -125h119v-191h-289zM668 1004v191q0 165 67 245q67 78 222 96v-170q-75 -2 -99 -46q-17 -31 -20 -125h119v-191h-289z" />
<glyph unicode="&#x201d;" horiz-adv-x="1100" d="M157 854v170q75 2 99 46q17 31 20 125h-119v191h289v-191q0 -164 -67.5 -244t-221.5 -97zM669 854v170q74 2 98 46q17 31 20 125h-118v191h288v-191q0 -164 -67 -244t-221 -97z" />
<glyph unicode="&#x201e;" horiz-adv-x="1176" d="M157 0v341h341v-341q0 -304 -341 -341v170q153 17 171 171h-171zM668 0v341h341v-341q0 -304 -341 -341v170q154 17 171 171h-171z" />
<glyph unicode="&#x2022;" horiz-adv-x="1121" d="M141 768q0 176 126 301.5t300 125.5q176 0 301.5 -126t125.5 -301q0 -176 -125 -301.5t-302 -125.5q-176 0 -301 125t-125 302z" />
<glyph unicode="&#x2026;" horiz-adv-x="2032" d="M164 0v341h341v-341h-341zM847 0v341h341v-341h-341zM1529 0v341h342v-341h-342z" />
<glyph unicode="&#x2039;" horiz-adv-x="830" d="M111 597l596 597v-171l-425 -426l425 -427v-170z" />
<glyph unicode="&#x203a;" horiz-adv-x="784" d="M111 0v170l425 427l-425 426v171l596 -597z" />
<glyph unicode="&#x2122;" horiz-adv-x="1585" d="M103 552q21 124 60 195l-16 6q25 72 64 99l12 -17q-31 -21 -51 -73q25 39 61 48q75 114 179 176q-50 -14 -93 -64l1 -2l-10 -8q-27 -24 -56 -67l-17 11q13 19 23 32q-16 -14 -30 -37l-18 11q14 23 30 38l-24 -12v-1q-74 -55 -80 -167l-21 2q8 118 85 178l-1 2l3 2 q5 53 117 101l3 6l3 -2q110 92 245 94h10q220 0 483 -178q110 -75 198 -209q85 -131 115 -263q38 -52 47 -120l-20 -3q-9 67 -46 114q-52 239 -267 431q-13 12 -38 33q-185 122 -366 160q-67 15 -116 15h-6q-116 -2 -229 -93q-23 -38 -61 -68q10 5 23 9q48 58 107 74 q49 51 154 53h9q121 0 257 -52q268 -102 405 -309q83 -127 115 -242q64 -88 71 -221l-21 -1q-3 80 -33 150q15 -77 16 -137v-7q0 -64 -17 -99l-18 9q15 31 15 88v8q-1 69 -25 172q-25 110 -57 163q-43 75 -67 110q-40 60 -79 102q-112 118 -312 195q-132 51 -252 51h-9 q-94 -2 -139 -48q64 35 146 36h10q146 0 303 -88q4 1 8 1h1q59 0 184 -102q126 -103 221 -328q48 -111 50 -253v-12q0 -51 -8 -100l-20 3q7 45 7 105v15q-3 181 -114 367q-114 193 -274 270q144 -99 246 -264.5t126 -338.5l3 -4l-3 -2q4 -30 5 -57v-7q0 -111 -66 -188 q-39 -47 -58 -65q-35 -32 -73 -47q-56 -61 -117 -62h-3q-92 0 -175 121q-56 81 -129 256q-74 180 -99 219q12 -127 142 -377q119 -232 263 -232h4q87 1 181 86l13 -15q-41 -39 -79 -60q68 28 147 71l9 -18q-204 -113 -324 -115q-19 -1 -32 2q-16 -4 -33 -5h-3 q-100 0 -179 111q-80 112 -96 136q-52 80 -78 146l1 8q0 30 -17 56q19 -124 79 -220q94 -149 125 -180q76 -78 192 -78h6h49q39 1 95 30q84 43 188 75l10 3l6 -20l-10 -3q-104 -31 -184 -73q-61 -32 -105 -32h-24h-25h-5q-162 0 -275 172q-132 202 -144 348l-5 3l3 5 q-43 129 -44 232q0 7 -1 14q0 59 16 106l20 -7q-15 -45 -16 -104q0 -4 1 -8q2 -101 43 -229q42 -34 43 -88q0 -4 -1 -7q58 -147 185 -293q73 -82 146 -82h2q18 0 35 6q12 -4 34 -4q31 1 71 11q-9 -1 -17 -1h-4q-169 0 -285 245q-138 292 -145 386q-1 13 -4 41h4q-6 29 -7 57 v6q0 117 82 137q26 3 77 16q-25 11 -47 11q-30 -1 -57 -22l-13 16q34 27 73 27h3q23 0 60 -18q127 -61 231 -229q21 -33 88 -173l88 -188q6 -14 8 -32q4 11 3 25q0 13 -3 29l-7 9l4 3q-11 39 -36 89q-5 8 -14 24q-11 34 -37 102q-110 261 -293 354q-57 29 -125 29h-5 q-143 -3 -143 -141h-21q1 158 157 161h5q80 0 142 -31q188 -96 301 -361q12 -35 38 -105q6 -9 16 -28q26 -53 36 -96q10 -14 16 -14q8 0 8 22q-146 406 -274 508q-84 68 -116 85q-48 25 -138 40l3 20q93 -15 143 -42q35 -18 121 -87q132 -107 282 -521q-2 -47 -25 -47 q-7 -1 -15 5v-6v-7q0 -63 -57 -64h-1q-58 0 -113 108q-116 227 -125 243q-107 190 -157 189h-1h-4q-7 -25 -7 -46q1 -34 40 -95q97 -157 156 -271q6 -13 21 -40q83 -150 162 -150h2q22 0 42 13q0 2 2 2q96 70 96 136q0 12 -2 20q-113 376 -251 517q-126 129 -285 176 q-11 -12 -83 -18q-81 -6 -129 -38q-77 -50 -117 -171l-19 6q66 204 275 225q23 1 57 10l-1 -4l1 -2l8 10q-11 -3 -24 -3q-9 -1 -26.5 3t-25.5 4q-47 -1 -103 -23q-198 -79 -197 -381v-15q2 -71 12 -125q38 -205 91 -327q67 -156 190 -274q7 -6 19 -6q15 0 35 8 q21 -37 107 -37h17l1 -20l-10 -1h-11q-62 0 -98 20l2 -7q-23 -7 -46 -7h-3q-42 0 -87 21l9 18q41 -19 80 -19q21 1 33 4l-3 3q-14 -3 -26 -4q-14 0 -33 11q-38 22 -58 42q-82 81 -150 267q-59 159 -79 304q-11 80 -12 129v15q0 290 179 385q-209 -81 -209 -327v-12 q0 -29 5 -68q2 -26 5 -77q10 -96 32 -189q71 -295 248 -449l-13 -15q-182 154 -254 459q-27 112 -42 308q-2 -36 -2 -74v-25q7 -370 204 -584q19 -20 35 -34l-14 -15q-140 125 -196 292q-45 134 -49 349v27q0 282 100 416q-72 -73 -111 -241q-31 -132 -31 -254v-15 q1 -50 6 -102l-20 -2q-6 55 -7 103v14q0 108 27 236q33 156 88 236l-23 -33l1 -7h-5q-94 -149 -100 -348h-20q4 187 86 331q-58 -50 -87 -227zM128 853l37 64l1 -1l54 71l16 -13l-54 -71h-1l-35 -60zM156 954q42 73 88 74q10 0 19 -3q142 115 296 118h8q54 0 105 -14 q13 -5 40 -13q48 -9 144 -37q298 -111 464 -408q71 -4 124 -178l-20 -6q-36 124 -87 155q75 -132 86 -211l-20 -3q-12 85 -94 222h-1q-2 6 -8 14l1 1q-76 135 -204 245q-131 110 -276 159q-31 10 -115 27l-39 14q-48 12 -100 12h-8q-153 -2 -292 -120l-1 -2v1l-22 -20 l-14 15l13 12q-33 -3 -70 -64zM173 1026q200 131 268 138q42 9 129 18h10q67 0 148 -27q112 -36 152 -52q83 -32 144 -70q215 -136 429 -460l-17 -11q-277 418 -584 531l-129 42q-83 27 -148 27h-5q-103 -2 -203 -47q-62 -28 -183 -106zM184 395q0 35 1 69l20 -1 q0 -18 -0.5 -36t0.5 -36q5 -327 132 -482l-16 -13q-131 154 -137 499zM229 916q41 22 69 55q-55 -30 -69 -55zM233 1104q51 44 78 44l11 1v-21q-30 0 -76 -40zM249 1165q100 61 167 62q31 0 50 -10l77 16l4 -20l-76 -16q-12 -32 -59 -33q-39 -1 -80 -26l-11 18q45 27 101 28 q20 1 29 18q-14 7 -34 6q-58 -1 -157 -61zM266 1223q121 42 207 44q30 0 53 -4l-4 -20q-22 4 -46 3q-85 -1 -203 -43zM278 726q44 92 135 146q86 51 187 51h3h10v-9q27 -7 51 -7q22 0 32 11q-86 27 -155 27h-5q-189 -4 -258 -219zM289 1273q62 30 145 31h14q28 0 54 -3 l-3 -21q-34 5 -69 5q-73 -2 -132 -31zM305 871q111 115 270 118q41 0 152 -23q24 -4 72 -17q93 -37 224 -171.5t168 -229.5q51 -126 85 -195q-40 185 -162 346q-125 166 -292 244q-132 62 -248 62h-8q-141 -3 -261 -134zM330 1370l99 14l3 -17q15 9 40 16l6 -20 q-34 -10 -50 -24q17 -5 28 -5q7 0 18 10l13 -16q-16 -14 -35 -14q-15 0 -37 8l-2 -1l-4 3l-71 -16l-4 20l71 16q9 11 21 19l-93 -14zM333 517v22q0 54 4 102l21 -2q-6 -62 -7 -123q0 -15 1 -30q6 -398 228 -660q35 -40 58 -60l-14 -16q-142 122 -220 353q-67 197 -71 414z M337 -135l18 9q20 -38 82 -83l-12 -17q-65 48 -88 91zM368 1416l21 1h28q328 0 705 -201q198 -105 338 -221l-13 -16q-212 179 -507 298q-296 119 -538 119h-33zM370 522v8q0 96 48 197q16 34 21 42q14 24 32 32l10 -18q-25 -13 -48 -73l-8 3l6 -5q-41 -47 -41 -171v-12 q3 -177 59 -375q26 -92 100 -214q84 -137 152 -174q37 -21 113 -21h13q47 1 106 11l3 -20q-57 -11 -105 -11h-14q-86 0 -126 22q-73 43 -158 181q-77 123 -103 220q-57 200 -60 378zM371 1440v21q200 0 410 -62q329 -96 443 -201l8 -1q-45 50 -150 108q-236 129 -631 190 l3 20q532 -82 764 -277q15 -16 48 -45l56 -7q28 -14 81 -48l-13 -16q-22 18 -74 44l-21 3q41 -37 129 -96l-9 -18q-35 16 -158 118l-42 6q-57 54 -208 119q-126 54 -232 81q-231 61 -404 61zM408 494q0 9 -1 17q0 327 223 331q11 1 31 -1l-1 -20q-12 1 -22 0 q-209 -3 -209 -304q0 -8 1 -17q1 -68 11 -135q27 -170 116 -352q114 -231 241 -240l-1 -21l-10 1q-40 3 -97 48q-194 152 -269 561q-12 62 -13 132zM478 559q0 21 1 48l19 -1q-2 -23 0 -46q4 -267 172 -496q-12 65 -100 250q-58 121 -60 252v8q0 182 145 203l3 -20 q-127 -19 -127 -180v-8q2 -124 57 -246q106 -236 101 -284l88 -112q50 -57 116 -81l-8 -19q-71 28 -123 86l-92 117l-3 1l1 2q-185 226 -190 526zM482 1532l1 19q210 -5 469 -113q226 -95 425 -238l-11 -17q-183 135 -422 233q-263 110 -462 116zM517 1352l4 21 q330 -55 584 -190q53 -28 158 -101q99 -69 159 -98l-9 -18q-46 21 -127 76q-53 50 -190 123q-251 133 -579 187zM518 1335l16 2q47 0 113 -49q314 0 639 -286q2 0 7 1h1q59 0 140 -82l-15 -14q-67 69 -112 76q98 -90 163 -172l-16 -13q-76 97 -172 181l-3 -1l-3 6 q-321 278 -627 283l-2 -4l-6 4h-1q-22 23 -81 23q-13 0 -28 -1l-2 20q21 2 41 0q-27 10 -49 6zM536 965h5q60 0 149 -24q97 -27 144 -60l4 1l1 -3q70 -4 109 -74q20 -14 102 -108q70 -81 132 -224l28 -69q6 -11 19 -32q43 -81 43 -147q0 -43 -20 -77q-10 -76 -99 -139 q-10 -53 -84 -54h-2q-97 0 -236 221q15 -53 84 -131l-15 -14q-90 101 -91 158q0 10 3 19q-163 272 -163 373q0 53 33 53q12 0 26 -6q7 2 13 2h1q62 0 172 -188q70 -120 130 -256q42 -96 95 -96h2q-14 10 -27 32q-2 3 -63 116l-157 287q-80 138 -171 138h-3q-74 -1 -74 -71 q0 -40 21 -85h-1q104 -255 140 -326q121 -240 216 -260l-4 -20q-137 29 -287 393l-99 244l1 1q-8 25 -8 51q0 92 95 94h2q104 0 190 -149q23 -39 157 -286q19 -41 62 -117q13 -20 24 -26q0 12 -8 34q-1 1 -41 91q-64 141 -94 198q-59 112 -119 182q-56 65 -131 102 q-14 -13 -45 -18l-49 -8q-70 -19 -70 -114q0 -33 14 -78q23 -23 107 -222q69 -163 112 -234q92 -150 183 -150h1q40 1 77 31q-6 -1 -13 -1h-2q-84 0 -142 89l17 11q52 -79 127 -79h2q20 0 40 7l8 10l5 -4q56 25 126 117q49 65 49 163v8q0 25 -3 51q-25 31 -61 121l-52 127 q-16 32 -74 111q-160 220 -308 278q-19 8 -68 17q-115 22 -147 22q-20 -1 -40 -3zM541 1245v20h11h23q331 0 643 -260q162 -134 263 -280l-16 -12q-151 224 -402 376q-258 156 -501 156h-21zM555 1201l1 21q171 -5 324 -70q63 0 156 -51q201 -109 436 -417l-16 -12 q-264 347 -478 436q256 -142 481 -483l-17 -11q-107 164 -252 304q-174 167 -325 217h1q-149 62 -311 66zM565 -330l4 20q36 -8 67 -8q27 1 60 10l5 -20q-33 -9 -64 -10q-36 0 -72 8zM566 1567l1 20q175 -10 398 -106q190 -82 363 -203l-11 -17q-158 112 -359 199 q-228 97 -392 107zM608 1607l4 20q369 -72 636 -247l-12 -18q-259 173 -628 245zM656 -369l127 11l2 -21l-128 -10zM668 585q2 -107 151 -352q156 -257 250 -257h1q37 0 52 17q-14 -4 -28 -4h-2q-108 0 -203 201q-41 87 -155 268q-42 66 -42 106q-1 21 6 45q-8 3 -14 3 q-16 0 -16 -27zM696 893q178 -51 299 -183q137 -150 253 -517q3 16 3 33q-1 42 -21 88l-39 81q-6 20 -20 58q-54 137 -136 231q-30 36 -94 101l-2 -5q-91 36 -114 82q-32 23 -109 49q-6 -12 -20 -18zM711 1628l3 21q160 -26 271 -100q93 -11 176 -80l-13 -16q-81 68 -171 77 q-104 73 -266 98zM723 577l17 10l5 -9l181 -304l80 -142q49 -78 96 -78h1q46 0 96 68l16 -12q-54 -77 -109 -78h-1q-60 0 -116 90l-76 133l-185 313zM746 -400h21q107 0 183 34l8 -19q-78 -35 -194 -36h-18v21zM790 -355q58 4 166 30l9 -19q-40 -17 -173 -32zM796 -304 q251 12 458 149l12 -17q-205 -136 -469 -153zM833 212l1 -1v-1zM852 857q18 -23 68 -46q-29 37 -68 46zM863 922l8 -4l-8 5v-1zM871 918l4 -2h1zM970 -328q34 12 97 44l12 -17q-24 -16 -102 -46zM1089 -278l108 43l8 -19l-108 -43zM1162 -44q117 64 136 161l20 -4 q-8 -40 -32 -76q19 14 44 73l19 -8q-27 -64 -55 -84l-12 14q-38 -54 -110 -93zM1209 -50q38 15 75 69l17 -12q-41 -60 -85 -76zM1409 422l19 6l16 -54l-20 -6zM1445 540l20 6l16 -48l-20 -6z" />
<glyph unicode="&#xe000;" horiz-adv-x="1195" d="M0 1195h1195v-1195h-1195v1195z" />
<glyph unicode="&#xfb01;" horiz-adv-x="1307" d="M139 1024v171h171v65q8 123 76 192q38 39 106 64q56 20 93 20h106v-172l-65 -2q-81 -2 -113 -51q-13 -19 -12 -116h170v-171h-170v-1024h-191v1024h-171zM974 0v1195h191v-1195h-191zM974 1365v171h191v-171h-191z" />
<glyph unicode="&#xfb02;" horiz-adv-x="1311" d="M139 1024v171h171v65q8 123 76 192q38 39 106 64q56 20 93 20h106v-172l-65 -2q-81 -2 -113 -51q-13 -19 -12 -116h170v-171h-170v-1024h-191v1024h-171zM974 0v1536h191v-1536h-191z" />
<glyph unicode="&#xfb03;" horiz-adv-x="2117" d="M139 1024v171h171v65q8 123 76 192q38 39 106 64q56 20 93 20h106v-172l-65 -2q-81 -2 -113 -51q-13 -19 -12 -116h170v-171h-170v-1024h-191v1024h-171zM949 1024v171h171v65q8 123 76 192q38 39 106 64q56 20 94 20h106v-172l-65 -2q-81 -2 -113 -51q-13 -19 -13 -116 h171v-171h-171v-1024h-191v1024h-171zM1784 0v1195h191v-1195h-191zM1784 1365v171h191v-171h-191z" />
<glyph unicode="&#xfb04;" horiz-adv-x="2121" d="M139 1024v171h171v65q8 123 76 192q38 39 106 64q56 20 93 20h106v-172l-65 -2q-81 -2 -113 -51q-13 -19 -12 -116h170v-171h-170v-1024h-191v1024h-171zM949 1024v171h171v65q8 123 76 192q38 39 106 64q56 20 94 20h106v-172l-65 -2q-81 -2 -113 -51q-13 -19 -13 -116 h171v-171h-171v-1024h-191v1024h-171zM1784 0v1536h191v-1536h-191z" />
</font>
</defs>
</svg>
